<svg width="31" height="24" viewBox="0 0 31 24" fill="none" xmlns="http://www.w3.org/2000/svg">
<g clip-path="url(#clip0_1373_5858)">
<path d="M26.2599 2.00165C24.2269 1.05427 22.0761 0.381126 19.8645 0C19.589 0.49604 19.2671 1.16322 19.0451 1.69399C16.6606 1.33684 14.2979 1.33684 11.9572 1.69399C11.7353 1.16334 11.4062 0.49604 11.1281 0C8.9143 0.381292 6.76169 1.05616 4.72773 2.00659C0.680296 8.09813 -0.416934 14.0382 0.13162 19.8942C2.81615 21.8908 5.41773 23.1037 7.97547 23.8974C8.61117 23.0268 9.17309 22.1051 9.6554 21.1417C8.73705 20.7935 7.85174 20.3644 7.00999 19.8595C7.23149 19.6959 7.44778 19.5255 7.65857 19.3485C12.7593 21.7246 18.3015 21.7246 23.3414 19.3485C23.5531 19.5243 23.7693 19.6947 23.9899 19.8595C23.1468 20.3658 22.2598 20.7957 21.3396 21.1442C21.8247 22.1115 22.3856 23.0341 23.0195 23.8998C25.5797 23.1062 28.1837 21.8933 30.8682 19.8942C31.512 13.1057 29.7687 7.22014 26.2599 2.00165ZM10.3504 16.2929C8.81913 16.2929 7.56339 14.8691 7.56339 13.1355C7.56339 11.4018 8.79237 9.97568 10.3504 9.97568C11.9083 9.97568 13.1641 11.3993 13.1373 13.1355C13.1398 14.8691 11.9085 16.2929 10.3504 16.2929ZM20.6495 16.2929C19.1183 16.2929 17.8626 14.8691 17.8626 13.1355C17.8626 11.4018 19.0915 9.97568 20.6495 9.97568C22.2076 9.97568 23.4632 11.3993 23.4365 13.1355C23.4365 14.8691 22.2076 16.2929 20.6495 16.2929Z" fill="#DEDEDE"/>
</g>
<defs>
<clipPath id="clip0_1373_5858">
<rect width="31" height="24" fill="white"/>
</clipPath>
</defs>
</svg>
