<svg width="25" height="25" viewBox="0 0 25 25" fill="none" xmlns="http://www.w3.org/2000/svg">
<path d="M12.9688 2.25C7.46875 2.25 2.96875 6.75 2.96875 12.25C2.96875 17.75 7.46875 22.25 12.9688 22.25C18.4688 22.25 22.9688 17.75 22.9688 12.25C22.9688 6.75 18.4688 2.25 12.9688 2.25Z" fill="#7CB342"/>
<path d="M23.4688 12.25C23.4688 18.1 18.7188 22.75 12.9688 22.75C7.21875 22.75 2.46875 18.1 2.46875 12.25C2.46875 6.4 7.11875 1.75 12.9688 1.75C18.8188 1.75 23.4688 6.4 23.4688 12.25ZM12.8687 17.1C12.8687 16.9 12.7688 16.8 12.5688 16.7C11.9188 16.5 11.3188 16.5 10.7688 15.95C10.6687 15.75 10.6688 15.55 10.5688 15.3C10.3688 15.1 9.81875 15 9.51875 14.9H7.41875C7.11875 14.8 6.86875 14.35 6.66875 14.05C6.66875 13.95 6.66875 13.75 6.46875 13.75C6.26875 13.65 6.06875 13.85 5.81875 13.75C5.71875 13.65 5.71875 13.55 5.71875 13.45C5.71875 13.15 5.91875 12.8 6.11875 12.6C6.41875 12.4 6.76875 12.7 7.06875 12.7C7.16875 12.7 7.16875 12.7 7.26875 12.8C7.56875 12.9 7.66875 13.3 7.66875 13.65V13.85C7.66875 13.95 7.76875 13.95 7.86875 13.95C7.96875 13.4 7.96875 12.9 8.06875 12.35C8.06875 11.7 8.71875 11.1 9.21875 10.9C9.41875 10.8 9.51875 11 9.76875 10.9C10.4188 10.7 11.9688 10.05 11.6687 9.2C11.4688 8.45 10.8188 7.75 9.96875 7.85C9.76875 7.95 9.66875 8.05 9.46875 8.15C9.16875 8.35 8.51875 9 8.21875 9C7.66875 8.9 7.66875 8.15 7.81875 7.85C7.91875 7.45 8.86875 6.05 9.51875 6.3L9.91875 6.7C10.1187 6.8 10.4688 6.8 10.7688 6.8C10.8688 6.8 10.9688 6.8 11.0688 6.7C11.1688 6.6 11.1687 6.6 11.1687 6.5C11.1687 6.2 10.8687 5.85 10.6687 5.65C10.4688 5.45 10.1188 5.25 9.81875 5.1C8.76875 4.8 7.06875 5.2 6.26875 5.95C5.46875 6.7 4.81875 7.95 4.36875 9C4.16875 9.65 3.96875 10.45 3.86875 11.2C3.76875 11.7 3.66875 12.15 3.96875 12.65C4.26875 13.3 4.91875 13.9 5.56875 14.35C5.96875 14.65 6.81875 14.65 7.26875 15.2C7.56875 15.6 7.46875 16.15 7.46875 16.65C7.46875 17.3 7.86875 17.8 8.11875 18.35C8.21875 18.65 8.31875 19.1 8.41875 19.4C8.41875 19.5 8.51875 20.15 8.51875 20.25C9.16875 20.55 9.66875 20.9 10.4187 21.1C10.5188 21.1 10.9187 20.45 10.9187 20.35C11.2188 20.05 11.4688 19.6 11.7688 19.4C11.9688 19.3 12.1687 19.2 12.4187 19C12.6187 18.8 12.7188 18.35 12.8188 18.05C12.8688 17.8 12.9688 17.4 12.8687 17.1ZM13.0688 7.4C13.1688 7.4 13.2688 7.3 13.4688 7.2C13.7688 7 14.1187 6.65 14.4187 6.45C14.7188 6.25 15.0688 5.9 15.2688 5.7C15.5688 5.5 15.8187 5.05 15.9187 4.75C16.0188 4.55 16.3188 4.1 16.2188 3.8C16.1187 3.6 15.5687 3.5 15.3687 3.4C14.5187 3.2 13.8188 3.1 12.9688 3.1C12.6687 3.1 12.2188 3.2 12.1187 3.5C12.0187 4.05 12.4187 3.9 12.8687 4.05C12.8687 4.05 12.9688 4.9 12.9688 5C13.0688 5.5 12.7688 5.85 12.7688 6.35C12.7688 6.65 12.7688 7.2 12.9688 7.4H13.0688ZM21.8687 14.75C21.9688 14.55 21.9688 14.2 22.0688 14C22.1688 13.5 22.1688 12.95 22.1688 12.45C22.1688 11.4 22.0687 10.35 21.7687 9.4C21.5687 9.1 21.4688 8.75 21.3687 8.45C21.1687 7.9 20.8688 7.4 20.4188 7C20.0188 6.45 19.4688 5 18.5187 5.45C18.2187 5.55 18.0187 5.95 17.7687 6.2C17.5687 6.5 17.3687 6.85 17.1187 7.15C17.0187 7.25 16.9187 7.45 17.0187 7.55C17.0187 7.65 17.1187 7.65 17.2188 7.65C17.4187 7.75 17.5188 7.75 17.7188 7.85C17.8188 7.85 17.9188 7.95 17.8188 8.05C17.8188 8.05 17.8188 8.15 17.7188 8.15C17.2188 8.7 16.6687 9.1 16.1687 9.6C16.0687 9.7 15.9688 9.9 15.9688 10C15.9688 10.1 16.0688 10.1 16.0688 10.2C16.0688 10.3 15.9688 10.3 15.8687 10.4C15.6687 10.5 15.4688 10.6 15.3188 10.7C15.2188 10.9 15.3188 11.25 15.2188 11.45C15.1187 12 14.8188 12.4 14.5688 12.9C14.3688 13.2 14.2688 13.55 14.0688 13.85C14.0688 14.25 13.9688 14.6 14.1687 14.9C14.6687 15.65 15.6187 15.2 16.3687 15.55C16.5687 15.65 16.7688 15.65 16.9187 15.85C17.2188 16.15 17.2188 16.7 17.3188 17C17.4188 17.4 17.5188 17.85 17.7188 18.25C17.8188 18.75 18.0187 19.3 18.1187 19.7C19.0688 18.95 19.9187 18.15 20.5187 17.1C21.2687 16.45 21.5688 15.6 21.8687 14.75Z" fill="#0277BD"/>
</svg>
