<svg width="400" height="401" viewBox="0 0 400 401" fill="none" xmlns="http://www.w3.org/2000/svg">
<path opacity="0.7" d="M54.345 134.162C54.345 134.162 32.041 191.762 63.385 249.762C94.729 307.762 159.289 338.402 210.961 364.602C262.633 390.802 316.289 378.042 341.785 335.13C367.281 292.218 332.313 261.586 332.265 200.394C332.217 139.202 341.425 123.002 308.265 71.3062C275.105 19.6102 193.817 8.16219 132.345 46.5062C70.873 84.8502 54.345 134.162 54.345 134.162Z" fill="white"/>
<path d="M153.601 361.482C175.361 374.962 215.417 357.362 230.521 341.202C279.529 288.738 366.297 200.042 347.457 109.65C339.457 71.2501 300.785 60.1461 285.281 57.9941C248.057 52.8101 210.161 58.3061 173.433 66.2501C135.033 74.5541 94.7369 86.6021 65.4329 114.106C54.4009 124.49 44.5449 136.73 39.4249 151.202C34.2249 165.906 33.2569 182.034 35.9049 197.354C40.1929 222.074 53.0809 244.554 68.7609 264.17C84.4409 283.786 102.961 300.826 120.545 318.714C132.001 330.386 135.273 350.09 153.601 361.482Z" fill="#E8BF31" fill-opacity="0.5"/>
<path opacity="0.7" d="M153.601 361.482C175.361 374.962 215.417 357.362 230.521 341.202C279.529 288.738 366.297 200.042 347.457 109.65C339.457 71.2501 300.785 60.1461 285.281 57.9941C248.057 52.8101 210.161 58.3061 173.433 66.2501C135.033 74.5541 94.7369 86.6021 65.4329 114.106C54.4009 124.49 44.5449 136.73 39.4249 151.202C34.2249 165.906 33.2569 182.034 35.9049 197.354C40.1929 222.074 53.0809 244.554 68.7609 264.17C84.4409 283.786 102.961 300.826 120.545 318.714C132.001 330.386 135.273 350.09 153.601 361.482Z" fill="white"/>
<path d="M57.8632 121.554H43.7432C43.7432 121.554 45.1512 118.058 56.1352 119.218C56.1352 119.218 61.6072 112.954 69.5832 112.954C69.7365 111.472 70.3814 110.084 71.4151 109.011C72.4488 107.938 73.8119 107.242 75.2872 107.034C80.7352 105.986 81.7912 110.842 81.7912 110.842C83.2788 110.199 84.8824 109.867 86.5032 109.867C88.1239 109.867 89.7275 110.199 91.2152 110.842C96.6152 112.97 95.5192 119.202 95.5192 119.202C95.5192 119.202 111.103 118.69 113.783 121.554H105.783" stroke="#263238" stroke-width="0.8" stroke-linecap="round" stroke-linejoin="round"/>
<path d="M60.3188 121.554H62.6788" stroke="#263238" stroke-width="0.8" stroke-linecap="round" stroke-linejoin="round"/>
<path d="M75.687 121.514H97.263" stroke="#263238" stroke-width="0.8" stroke-linecap="round" stroke-linejoin="round"/>
<path d="M178.216 200.226H157.6C157.6 200.226 158.808 197.242 168.176 198.234C168.176 198.234 172.848 192.89 179.648 192.89C179.781 191.625 180.332 190.441 181.215 189.525C182.098 188.609 183.261 188.014 184.52 187.834C189.168 186.946 190.072 191.09 190.072 191.09C191.341 190.541 192.709 190.258 194.092 190.258C195.474 190.258 196.843 190.541 198.112 191.09C202.72 192.906 201.792 198.226 201.792 198.226C201.792 198.226 215.088 197.786 217.368 200.226H212.376" stroke="#263238" stroke-width="0.8" stroke-linecap="round" stroke-linejoin="round"/>
<path d="M183.087 200.074H186.039" stroke="#263238" stroke-width="0.8" stroke-linecap="round" stroke-linejoin="round"/>
<path d="M176.752 61.1061H156.096C156.096 61.1061 157.304 58.1221 166.672 59.1221C166.672 59.1221 171.336 53.7701 178.144 53.7701C178.276 52.5056 178.827 51.3218 179.71 50.407C180.593 49.4922 181.757 48.8991 183.016 48.7221C187.664 47.8261 188.568 51.9701 188.568 51.9701C189.831 51.4264 191.192 51.146 192.568 51.146C193.943 51.146 195.304 51.4264 196.568 51.9701C201.176 53.7861 200.24 59.1061 200.24 59.1061C200.24 59.1061 213.544 58.6661 215.824 61.1061H210.832" stroke="#263238" stroke-width="0.8" stroke-linecap="round" stroke-linejoin="round"/>
<path d="M181.615 60.9541H184.575" stroke="#263238" stroke-width="0.8" stroke-linecap="round" stroke-linejoin="round"/>
<path d="M111.943 237.93H60.4551C64.2951 233.826 86.6791 234.554 86.6791 234.554C86.6791 234.554 85.0791 225.61 92.8711 222.554C100.663 219.498 106.407 222.554 106.407 222.554C106.407 222.554 107.927 215.578 115.751 217.082C123.575 218.586 123.951 225.586 123.951 225.586C135.415 225.586 143.271 234.594 143.271 234.594C159.047 232.914 161.079 237.938 161.079 237.938H155.327" stroke="#263238" stroke-width="0.8" stroke-linecap="round" stroke-linejoin="round"/>
<path d="M151.016 237.93H148.832" stroke="#263238" stroke-width="0.8" stroke-linecap="round" stroke-linejoin="round"/>
<path d="M120.855 237.93H128.375" stroke="#263238" stroke-width="0.8" stroke-linecap="round" stroke-linejoin="round"/>
<path d="M288.383 114.338H226.783C226.783 114.338 229.335 108.042 249.111 110.146C249.111 110.146 258.967 98.8499 273.327 98.8499C273.327 98.8499 273.807 90.0499 283.615 88.1859C293.423 86.3219 295.327 95.0499 295.327 95.0499C295.327 95.0499 302.575 91.2099 312.303 95.0499C322.031 98.8899 320.063 110.114 320.063 110.114C320.063 110.114 348.135 109.194 352.951 114.338H338.719" stroke="#263238" stroke-width="0.8" stroke-linecap="round" stroke-linejoin="round"/>
<path d="M294.271 114.338H299.999" stroke="#263238" stroke-width="0.8" stroke-linecap="round" stroke-linejoin="round"/>
<path d="M305.6 253.626H354.728C354.728 253.626 352.696 248.61 336.92 250.282C336.92 250.282 329.064 241.274 317.608 241.274C317.608 241.274 317.224 234.274 309.4 232.77C301.576 231.266 300.056 238.242 300.056 238.242C300.056 238.242 294.28 235.178 286.52 238.242C278.76 241.306 280.336 250.242 280.336 250.242C280.336 250.242 257.936 249.506 254.104 253.61H268.968" stroke="#263238" stroke-width="0.8" stroke-linecap="round" stroke-linejoin="round"/>
<path d="M272.983 253.626H280.231" stroke="#263238" stroke-width="0.8" stroke-linecap="round" stroke-linejoin="round"/>
<path d="M204.679 272.722V234.042H211.055V249.634H217.327V272.954" stroke="#263238" stroke-width="0.8" stroke-linecap="round" stroke-linejoin="round"/>
<path d="M229.631 249.266V213.026H242.383V197.314H266.855V202.89H272.983V239.786" stroke="#263238" stroke-width="0.8" stroke-linecap="round" stroke-linejoin="round"/>
<path d="M300 225.762V189.514H308.208V173.098H311.44V144.882H314.12V158.458L320.704 165.042V181.474H328.232V217.474H335.08V227.394" stroke="#263238" stroke-width="0.8" stroke-linecap="round" stroke-linejoin="round"/>
<path d="M276.607 220.482H282.895V181.09H287.951V124.45H289.863V162.466H294.271V202.09H297.407" stroke="#263238" stroke-width="0.8" stroke-linecap="round" stroke-linejoin="round"/>
<path d="M226.783 227.394H221.479V215.682H218.655V227.394H214.703V244.962" stroke="#263238" stroke-width="0.8" stroke-linecap="round" stroke-linejoin="round"/>
<path d="M236.671 209.018V181.474H245.271V158.458H248.247V181.474H254.111V193.53" stroke="#263238" stroke-width="0.8" stroke-linecap="round" stroke-linejoin="round"/>
<path d="M245.392 213.026H259.08V243.826" stroke="#263238" stroke-width="0.8" stroke-linecap="round" stroke-linejoin="round"/>
<path d="M239.535 271.01V252.714H223.951V291.402" stroke="#263238" stroke-width="0.8" stroke-linecap="round" stroke-linejoin="round"/>
<path d="M211.055 281.122V275.93H195.119V317.69H190.903" stroke="#263238" stroke-width="0.8" stroke-linecap="round" stroke-linejoin="round"/>
<path d="M311.439 201.682H322.207" stroke="#263238" stroke-width="0.8" stroke-linecap="round" stroke-linejoin="round"/>
<path d="M311.439 207.362H322.207" stroke="#263238" stroke-width="0.8" stroke-linecap="round" stroke-linejoin="round"/>
<path d="M311.439 213.682H321.383" stroke="#263238" stroke-width="0.8" stroke-linecap="round" stroke-linejoin="round"/>
<path d="M262.839 200.226H248.247" stroke="#263238" stroke-width="0.8" stroke-linecap="round" stroke-linejoin="round"/>
<path d="M234.583 219.69H251.303" stroke="#263238" stroke-width="0.8" stroke-linecap="round" stroke-linejoin="round"/>
<path d="M234.583 223.29H251.303" stroke="#263238" stroke-width="0.8" stroke-linecap="round" stroke-linejoin="round"/>
<path d="M234.583 227.394H251.303" stroke="#263238" stroke-width="0.8" stroke-linecap="round" stroke-linejoin="round"/>
<path d="M287.007 188.642V225.762" stroke="#263238" stroke-width="0.8" stroke-linecap="round" stroke-linejoin="round"/>
<path d="M289.863 188.642V225.762" stroke="#263238" stroke-width="0.8" stroke-linecap="round" stroke-linejoin="round"/>
<path d="M97.9038 133.074C97.9038 133.074 106.352 125.314 112.2 126.242C113.176 126.394 108.16 135.946 108.16 135.946L97.9038 133.074Z" fill="#401A6D"/>
<mask id="mask0_1242_9195" style="mask-type:luminance" maskUnits="userSpaceOnUse" x="97" y="126" width="16" height="10">
<path d="M97.9033 133.074C97.9033 133.074 106.351 125.314 112.199 126.242C113.175 126.394 108.159 135.946 108.159 135.946L97.9033 133.074Z" fill="white"/>
</mask>
<g mask="url(#mask0_1242_9195)">
<path opacity="0.5" d="M97.9033 133.074C97.9033 133.074 106.351 125.314 112.199 126.242C113.175 126.394 108.159 135.946 108.159 135.946L97.9033 133.074Z" fill="black" fill-opacity="0.7"/>
</g>
<path d="M97.9038 133.074C97.9038 133.074 106.352 125.314 112.2 126.242C113.176 126.394 108.16 135.946 108.16 135.946L97.9038 133.074Z" fill="#E8BF31" stroke="#263238" stroke-width="0.8" stroke-linecap="round" stroke-linejoin="round"/>
<path d="M175.288 166.77C175.288 166.77 175.608 192.194 176.552 196.434C177.414 199.582 178.692 202.6 180.352 205.41C180.352 205.41 177.6 261.114 178.496 263.69C179.392 266.266 183.2 283.898 183.2 283.898L187.632 351.41H186.032C186.032 351.41 180 287.69 180 285.802C180 283.914 175.256 267.306 175.256 267.306C175.256 267.306 174.624 212.058 175.256 208.906C175.888 205.754 171.544 197.426 171.544 197.426C171.544 197.426 171.6 171.874 170.264 169.338C170.296 169.33 173.072 167.058 175.288 166.77Z" fill="#757575" stroke="#263238" stroke-width="0.8" stroke-linecap="round" stroke-linejoin="round"/>
<path d="M112.201 196.434C112.201 196.434 103.609 210.874 106.353 223.634C106.353 223.634 103.081 267.458 101.809 270.306C100.537 273.154 92.0008 285.746 89.3768 304.082C87.7902 315.178 85.3836 326.142 82.1768 336.882H93.6008C93.6008 336.882 110.657 282.906 114.153 280.082C117.649 277.258 124.081 258.378 128.625 241.53C128.625 241.53 134.753 271.418 137.193 277.122C139.633 282.826 137.593 299.298 141.081 309.826C144.529 320.226 144.281 336.914 144.281 336.914C144.281 336.914 156.161 339.858 156.049 336.914C155.249 316.546 159.369 298.914 154.273 280.786C151.873 272.322 156.673 222.858 147.921 196.474L112.201 196.434Z" fill="#BFBFBF"/>
<mask id="mask1_1242_9195" style="mask-type:luminance" maskUnits="userSpaceOnUse" x="82" y="196" width="75" height="143">
<path d="M112.201 196.434C112.201 196.434 103.609 210.874 106.353 223.634C106.353 223.634 103.081 267.458 101.809 270.306C100.537 273.154 92.0008 285.746 89.3768 304.082C87.7902 315.178 85.3836 326.142 82.1768 336.882H93.6008C93.6008 336.882 110.657 282.906 114.153 280.082C117.649 277.258 124.081 258.378 128.625 241.53C128.625 241.53 134.753 271.418 137.193 277.122C139.633 282.826 137.593 299.298 141.081 309.826C144.529 320.226 144.281 336.914 144.281 336.914C144.281 336.914 156.161 339.858 156.049 336.914C155.249 316.546 159.369 298.914 154.273 280.786C151.873 272.322 156.673 222.858 147.921 196.474L112.201 196.434Z" fill="white"/>
</mask>
<g mask="url(#mask1_1242_9195)">
<path opacity="0.3" d="M128.376 237.93C128.376 238.506 128.464 239.962 128.568 241.77C124.024 258.57 117.64 277.21 114.168 280.042C110.696 282.874 93.616 336.842 93.616 336.842H82.208C85.4149 326.102 87.8215 315.139 89.408 304.042C92.008 285.706 100.608 273.146 101.84 270.29C103.072 267.434 106.352 223.69 106.352 223.69C105.693 220.374 105.628 216.966 106.16 213.626C106.768 217.97 109.36 223.362 118.16 224.754C117.622 223.082 117.47 221.309 117.713 219.569C117.957 217.829 118.591 216.167 119.568 214.706C119.568 214.706 117.864 223.69 125.08 227.898C125.4 228.082 125.296 229.354 125.296 229.354C125.296 229.354 128.344 235.842 128.376 237.93Z" fill="black" fill-opacity="0.7"/>
<path opacity="0.3" d="M149.056 200.09C146.136 201.858 139.808 203.922 126.336 203.378C124.119 205.2 122.26 207.419 120.856 209.922L119.568 208.898C119.568 208.898 113.4 212.41 106.696 210.69C107.842 205.698 109.695 200.894 112.2 196.426H148C148.36 197.602 148.72 198.826 149.056 200.09Z" fill="black" fill-opacity="0.7"/>
</g>
<path d="M112.201 196.434C112.201 196.434 103.609 210.874 106.353 223.634C106.353 223.634 103.081 267.458 101.809 270.306C100.537 273.154 92.0008 285.746 89.3768 304.082C87.7902 315.178 85.3836 326.142 82.1768 336.882H93.6008C93.6008 336.882 110.657 282.906 114.153 280.082C117.649 277.258 124.081 258.378 128.625 241.53C128.625 241.53 134.753 271.418 137.193 277.122C139.633 282.826 137.593 299.298 141.081 309.826C144.529 320.226 144.281 336.914 144.281 336.914C144.281 336.914 156.161 339.858 156.049 336.914C155.249 316.546 159.369 298.914 154.273 280.786C151.873 272.322 156.673 222.858 147.921 196.474L112.201 196.434Z" stroke="#263238" stroke-width="0.8" stroke-linecap="round" stroke-linejoin="round"/>
<path d="M121.8 207.73C121.8 207.73 115.88 219.034 122.32 225.754C122.32 225.754 130.456 233.394 139.232 231.562" stroke="#263238" stroke-width="0.8" stroke-linecap="round" stroke-linejoin="round"/>
<path d="M128.64 241.49C128.64 241.49 127.84 235.33 126.312 232.69C124.784 230.05 125.296 229.33 125.296 229.33C125.296 229.33 118.368 231.466 113.888 229.834" stroke="#263238" stroke-width="0.8" stroke-linecap="round" stroke-linejoin="round"/>
<path d="M106.353 223.69C107.921 225.168 109.783 226.3 111.817 227.013C113.851 227.725 116.012 228.002 118.161 227.826" stroke="#263238" stroke-width="0.8" stroke-linecap="round" stroke-linejoin="round"/>
<path d="M121.8 129.442C122.44 129.178 154.368 126.794 155.96 123.506C154.393 120.531 153.215 117.366 152.456 114.09C150.462 106.53 147.255 99.3434 142.96 92.8102L150.96 91.3462C155.76 104.834 167.088 116.802 166.888 129.314C166.888 129.314 149.608 141.066 132.016 142.978C126.952 143.514 121.8 129.442 121.8 129.442Z" fill="white" stroke="#263238" stroke-width="0.8" stroke-linecap="round" stroke-linejoin="round"/>
<path d="M132.44 120.554C131.357 120.404 130.255 120.615 129.304 121.154C126.056 123.122 126.648 128.994 126.648 128.994L112.2 126.242C115.352 121.658 114.544 111.138 114.544 111.138C128.08 98.4501 131.344 110.074 132.144 116.738C132.392 118.618 132.432 120.098 132.44 120.554Z" fill="white" stroke="#263238" stroke-width="0.8" stroke-linecap="round" stroke-linejoin="round"/>
<path d="M132.44 120.554C131.357 120.403 130.255 120.614 129.304 121.154C128.147 119.219 127.418 117.058 127.168 114.818L132.168 116.746C132.392 118.618 132.432 120.098 132.44 120.554Z" fill="#263238"/>
<path d="M107.016 89.482C107.016 89.482 105.784 82.282 117.88 81.178C129.976 80.074 141.08 83.41 141.08 92.226C141.08 101.042 133.784 119.25 119.264 111.138C104.744 103.026 107.016 89.482 107.016 89.482Z" fill="#263238"/>
<path d="M114.041 112.138C112.793 110.538 109.497 104.794 108.969 102.602C105.705 89.1221 113.081 88.1461 118.569 85.4181C129.009 80.2421 138.505 90.7381 137.689 100.082C136.873 109.426 141.281 108.322 141.081 109.61C140.913 110.698 138.113 111.802 138.113 111.802C138.068 112.603 138.092 113.406 138.185 114.202L137.497 114.834C137.137 116.61 136.321 121.09 135.737 121.234C134.569 121.586 128.017 119.298 126.937 116.874" fill="white"/>
<path d="M114.041 112.138C112.793 110.538 109.497 104.794 108.969 102.602C105.705 89.1221 113.081 88.1461 118.569 85.4181C129.009 80.2421 138.505 90.7381 137.689 100.082C136.873 109.426 141.281 108.322 141.081 109.61C140.913 110.698 138.113 111.802 138.113 111.802C138.068 112.603 138.092 113.406 138.185 114.202L137.497 114.834C137.137 116.61 136.321 121.09 135.737 121.234C134.569 121.586 128.017 119.298 126.937 116.874" stroke="#263238" stroke-width="0.8" stroke-linecap="round" stroke-linejoin="round"/>
<path d="M136.681 104.026C136.585 104.706 136.201 105.21 135.825 105.162C135.449 105.114 135.209 104.514 135.297 103.834C135.385 103.154 135.777 102.65 136.161 102.706C136.545 102.762 136.801 103.346 136.681 104.026Z" fill="#263238"/>
<path d="M137.192 98.714C137.192 98.714 135.448 98.418 133.696 100.314" stroke="#263238" stroke-width="0.8" stroke-linecap="round" stroke-linejoin="round"/>
<path d="M133.6 85.466C128.8 81.794 102.016 78.018 106.464 99.186C105.872 101.81 107.672 106.234 113.664 113.41C113.664 113.41 116.568 111.138 119.68 113.09C119.68 113.09 121.56 107.266 124.8 105.946C125.5 105.639 126.122 105.177 126.616 104.594C135.192 102.45 136.28 94.314 136.168 91.466C136.68 90.69 137.6 88.49 133.6 85.466Z" fill="#263238"/>
<path d="M112.2 86.0899C112.2 86.0899 105.224 78.2499 96.6719 82.6259C88.1199 87.0019 90.408 99.2259 95.144 105.826C99.88 112.426 94.0719 117.746 95.9039 121.338C97.7359 124.93 101.6 123.45 101.6 123.45C100.964 123.064 100.426 122.536 100.029 121.907C99.632 121.279 99.3865 120.566 99.3119 119.826C99 117.234 104.2 116.01 104.2 108.674C104.2 101.338 102.52 94.7699 108.632 97.8259C114.744 100.882 112.2 86.0899 112.2 86.0899Z" fill="#263238"/>
<path d="M137.504 114.81C137.504 114.81 134.832 114.946 133.696 113.89" stroke="#263238" stroke-width="0.8" stroke-linecap="round" stroke-linejoin="round"/>
<g opacity="0.2">
<path d="M112.201 86.0898C112.201 86.0898 116.361 91.4018 111.361 95.8018" stroke="white" stroke-width="0.8" stroke-linecap="round" stroke-linejoin="round"/>
<path d="M133.601 85.4658C133.601 85.4658 140.001 92.4498 127.201 100.274" stroke="white" stroke-width="0.8" stroke-linecap="round" stroke-linejoin="round"/>
<path d="M131.201 84.2422C131.201 84.2422 133.697 86.6422 128.001 91.3542C122.305 96.0662 118.049 97.2902 113.849 97.0742" stroke="white" stroke-width="0.8" stroke-linecap="round" stroke-linejoin="round"/>
<path d="M110.288 90.2023C110.288 90.2023 106.6 84.2023 100.752 88.3143C94.9044 92.4263 96.1684 98.0903 99.3284 104.594C102.488 111.098 100.344 115.37 100.344 115.37" stroke="white" stroke-width="0.8" stroke-linecap="round" stroke-linejoin="round"/>
<path d="M99.2007 83.25C99.2007 83.25 92.0007 83.458 92.5527 92.85C93.1047 102.242 96.4566 102.186 97.1926 106.714" stroke="white" stroke-width="0.8" stroke-linecap="round" stroke-linejoin="round"/>
<path d="M118.721 104.594C118.721 104.594 111.521 106.194 108.817 100.274" stroke="white" stroke-width="0.8" stroke-linecap="round" stroke-linejoin="round"/>
</g>
<path d="M125.664 105.49C125.664 105.49 124.48 101.17 121.344 102.626C118.208 104.082 120.952 108.226 122.504 110.194C122.71 110.513 123.004 110.766 123.35 110.923C123.697 111.079 124.081 111.131 124.457 111.074C124.832 111.016 125.183 110.851 125.467 110.598C125.751 110.346 125.955 110.016 126.056 109.65" fill="white"/>
<path d="M125.664 105.49C125.664 105.49 124.48 101.17 121.344 102.626C118.208 104.082 120.952 108.226 122.504 110.194C122.71 110.513 123.004 110.766 123.35 110.923C123.697 111.079 124.081 111.131 124.457 111.074C124.832 111.016 125.183 110.851 125.467 110.598C125.751 110.346 125.955 110.016 126.056 109.65" stroke="#263238" stroke-width="0.8" stroke-linecap="round" stroke-linejoin="round"/>
<path d="M111.201 124.002L110.865 126.442C98.5206 137.986 106.673 165.114 114.425 182.442L109.473 198.09C109.473 198.09 130.593 205.122 149.841 199.618L148.001 181.242L145.865 166.89C145.865 166.89 147.625 162.002 147.969 152.49C148.313 142.978 130.401 118.658 111.201 124.002Z" fill="#263238"/>
<path d="M146.4 95.2661C146.4 95.2661 143.2 96.9781 141.832 96.5141C141.832 96.5141 134.944 96.9061 134.752 93.9941C135.933 93.7893 137.062 93.3531 138.074 92.7105C139.086 92.068 139.961 91.2318 140.648 90.2501C141.8 88.6501 151.736 88.6501 151.152 91.9701C151.056 92.5049 150.836 93.01 150.511 93.4458C150.187 93.8817 149.765 94.2363 149.28 94.4821" fill="white"/>
<path d="M146.4 95.2661C146.4 95.2661 143.2 96.9781 141.832 96.5141C141.832 96.5141 134.944 96.9061 134.752 93.9941C135.933 93.7893 137.062 93.3531 138.074 92.7105C139.086 92.068 139.961 91.2318 140.648 90.2501C141.8 88.6501 151.736 88.6501 151.152 91.9701C151.056 92.5049 150.836 93.01 150.511 93.4458C150.187 93.8817 149.765 94.2363 149.28 94.4821" stroke="#263238" stroke-width="0.8" stroke-linecap="round" stroke-linejoin="round"/>
<path d="M140.64 90.2499C142.056 90.0259 141.36 90.7459 142.368 90.6739C143.376 90.6019 143.464 89.9539 144.2 90.9139C144.936 91.8739 145.752 90.9139 146.512 91.2339" fill="white"/>
<path d="M140.64 90.2499C142.056 90.0259 141.36 90.7459 142.368 90.6739C143.376 90.6019 143.464 89.9539 144.2 90.9139C144.936 91.8739 145.752 90.9139 146.512 91.2339" stroke="#263238" stroke-width="0.8" stroke-linecap="round" stroke-linejoin="round"/>
<path d="M141.824 96.49C141.92 95.69 144.728 94.178 145.464 93.186L141.824 96.49Z" fill="white"/>
<path d="M141.824 96.49C141.92 95.69 144.728 94.178 145.464 93.186" stroke="#263238" stroke-width="0.8" stroke-linecap="round" stroke-linejoin="round"/>
<path d="M139.441 96.4899C138.569 95.4339 140.585 94.9539 142.513 93.0659L139.441 96.4899Z" fill="white"/>
<path d="M139.441 96.4899C138.569 95.4339 140.585 94.9539 142.513 93.0659" stroke="#263238" stroke-width="0.8" stroke-linecap="round" stroke-linejoin="round"/>
<path d="M137.112 96.0818C136.024 95.0018 136.48 94.6178 138.184 93.8258C139.123 93.4296 139.948 92.8054 140.584 92.0098" fill="white"/>
<path d="M137.112 96.0818C136.024 95.0018 136.48 94.6178 138.184 93.8258C139.123 93.4296 139.948 92.8054 140.584 92.0098" stroke="#263238" stroke-width="0.8" stroke-linecap="round" stroke-linejoin="round"/>
<path d="M139.928 330.33C139.928 330.33 147.072 328.01 152.776 330.106L154.552 336.874L158.4 330.33C158.4 330.33 157.112 338.562 158.4 341.082C159.688 343.602 167.36 344.794 168.616 346.434C169.872 348.074 170.28 351.41 170.28 351.41H140.464L142.784 341.082L139.928 330.33Z" fill="#E8BF31" stroke="#263238" stroke-width="0.8" stroke-linecap="round" stroke-linejoin="round"/>
<path d="M80.4559 330.33C80.4559 330.33 86.0559 328.01 91.7599 330.106L91.2159 336.874L98.1679 330.33C98.1679 330.33 93.7919 338.562 95.0799 341.082C96.3679 343.602 104.04 344.794 105.296 346.434C106.552 348.074 106.96 351.41 106.96 351.41H77.1279L80.2159 341.082L80.4559 330.33Z" fill="#E8BF31"/>
<mask id="mask2_1242_9195" style="mask-type:luminance" maskUnits="userSpaceOnUse" x="77" y="329" width="30" height="23">
<path d="M80.4559 330.33C80.4559 330.33 86.0559 328.01 91.7599 330.106L91.2159 336.874L98.1679 330.33C98.1679 330.33 93.7919 338.562 95.0799 341.082C96.3679 343.602 104.04 344.794 105.296 346.434C106.552 348.074 106.96 351.41 106.96 351.41H77.1279L80.2159 341.082L80.4559 330.33Z" fill="white"/>
</mask>
<g mask="url(#mask2_1242_9195)">
<path opacity="0.3" d="M80.4559 330.33C80.4559 330.33 86.0559 328.01 91.7599 330.106L91.2159 336.874L98.1679 330.33C98.1679 330.33 93.7919 338.562 95.0799 341.082C96.3679 343.602 104.04 344.794 105.296 346.434C106.552 348.074 106.96 351.41 106.96 351.41H77.1279L80.2159 341.082L80.4559 330.33Z" fill="#E8BF31"/>
</g>
<path d="M80.4559 330.33C80.4559 330.33 86.0559 328.01 91.7599 330.106L91.2159 336.874L98.1679 330.33C98.1679 330.33 93.7919 338.562 95.0799 341.082C96.3679 343.602 104.04 344.794 105.296 346.434C106.552 348.074 106.96 351.41 106.96 351.41H77.1279L80.2159 341.082L80.4559 330.33Z" stroke="#263238" stroke-width="0.8" stroke-linecap="round" stroke-linejoin="round"/>
<path d="M140.472 176.802C140.472 176.802 144.784 171.034 145.552 167.81L146.44 170.61C146.44 170.61 144.16 177.01 140.472 180.33V176.802Z" fill="#BFBFBF" stroke="#263238" stroke-width="0.8" stroke-linecap="round" stroke-linejoin="round"/>
<path d="M123.368 179.562C123.368 179.562 129.4 181.834 133.672 180.41C136.486 179.357 139.024 177.681 141.096 175.506L142.488 178.034C142.488 178.034 132.848 194.834 123.368 192.29" fill="#401A6D"/>
<path d="M123.368 179.562C123.368 179.562 129.4 181.834 133.672 180.41C136.486 179.357 139.024 177.681 141.096 175.506L142.488 178.034C142.488 178.034 132.848 194.834 123.368 192.29" stroke="#263238" stroke-width="0.8" stroke-linecap="round" stroke-linejoin="round"/>
<path d="M124 201.682C120.864 209.922 90.4804 208.026 84.5684 203.394C83.2644 202.37 82.0564 200.394 81.0004 197.898C78.9005 192.563 77.4891 186.982 76.8004 181.29C76.6164 179.81 76.4884 178.41 76.4324 177.154C76.2964 174.338 76.4964 172.218 77.0964 171.45C79.4964 168.402 82.1764 165.45 82.1764 165.45C82.1764 165.45 77.5044 140.49 82.1764 138.106C86.0317 135.805 90.2527 134.181 94.6564 133.306C101.408 132.114 112.768 128.754 117.856 135.706C118.116 136.072 118.339 136.463 118.52 136.874C123.312 147.042 127 193.794 124 201.682Z" fill="#E8BF31"/>
<mask id="mask3_1242_9195" style="mask-type:luminance" maskUnits="userSpaceOnUse" x="76" y="131" width="50" height="77">
<path d="M124 201.682C120.864 209.922 90.4804 208.026 84.5684 203.394C83.2644 202.37 82.0564 200.394 81.0004 197.898C78.9005 192.563 77.4891 186.982 76.8004 181.29C76.6164 179.81 76.4884 178.41 76.4324 177.154C76.2964 174.338 76.4964 172.218 77.0964 171.45C79.4964 168.402 82.1764 165.45 82.1764 165.45C82.1764 165.45 77.5044 140.49 82.1764 138.106C86.0317 135.805 90.2527 134.181 94.6564 133.306C101.408 132.114 112.768 128.754 117.856 135.706C118.116 136.072 118.339 136.463 118.52 136.874C123.312 147.042 127 193.794 124 201.682Z" fill="white"/>
</mask>
<g mask="url(#mask3_1242_9195)">
<path opacity="0.3" d="M124 201.682C120.864 209.922 90.4802 208.026 84.5682 203.394C83.2642 202.37 82.0562 200.394 81.0002 197.898C79.3362 192.21 77.8002 185.642 76.8402 181.29C76.2402 178.546 75.8562 176.69 75.8242 176.49C75.9779 176.764 76.2014 176.993 76.4722 177.154C77.9042 178.178 82.4162 180.09 96.4722 181.018C96.4722 181.018 86.2482 183.858 78.2322 180.346C78.2322 180.346 80.9762 196.89 83.9282 200.154C86.8802 203.418 100.28 206.17 103.448 204.378C106.616 202.586 104.464 185.77 105.12 184.05C105.776 182.33 108.32 180.898 108.456 180.346C108.592 179.794 109.144 171.722 109.144 171.722C109.144 171.722 89.4162 167.674 83.9282 167.826C78.4402 167.978 86.2482 164.074 91.7362 164.706C97.2242 165.338 108.192 167.674 108.456 167.826C108.72 167.978 106.176 143.698 103.336 140.066C100.496 136.434 106.92 136.594 108.456 142.37C109.928 147.97 113.616 168.29 113.88 169.69C113.816 168.578 113.08 156.65 112.328 152.202C111.568 147.538 111.64 141.394 112.448 140.762C113.256 140.13 117.336 138.514 117.72 137.634C117.924 137.322 118.198 137.061 118.52 136.874C123.312 147.042 127 193.794 124 201.682Z" fill="black" fill-opacity="0.7"/>
</g>
<path d="M124 201.682C120.864 209.922 90.4804 208.026 84.5684 203.394C83.2644 202.37 82.0564 200.394 81.0004 197.898C78.9005 192.563 77.4891 186.982 76.8004 181.29C76.6164 179.81 76.4884 178.41 76.4324 177.154C76.2964 174.338 76.4964 172.218 77.0964 171.45C79.4964 168.402 82.1764 165.45 82.1764 165.45C82.1764 165.45 77.5044 140.49 82.1764 138.106C86.0317 135.805 90.2527 134.181 94.6564 133.306C101.408 132.114 112.768 128.754 117.856 135.706C118.116 136.072 118.339 136.463 118.52 136.874C123.312 147.042 127 193.794 124 201.682Z" stroke="#263238" stroke-width="0.8" stroke-linecap="round" stroke-linejoin="round"/>
<path d="M108.16 132.938C106.034 131.186 103.475 130.039 100.752 129.618C96.3283 128.986 92.5283 134.994 92.5283 134.994H94.5843C94.5843 134.994 97.4323 129.458 103.128 134.362" fill="#E8BF31"/>
<path d="M108.16 132.938C106.034 131.186 103.475 130.039 100.752 129.618C96.3283 128.986 92.5283 134.994 92.5283 134.994H94.5843C94.5843 134.994 97.4323 129.458 103.128 134.362" stroke="#263238" stroke-width="0.8" stroke-linecap="round" stroke-linejoin="round"/>
<path d="M87.1444 137.21C87.1444 137.21 98.8564 136.258 102.656 139.266C106.456 142.274 108.456 166.77 108.456 166.77C108.456 166.77 90.9204 161.898 85.8804 164.426" stroke="#263238" stroke-width="0.8" stroke-linecap="round" stroke-linejoin="round"/>
<path d="M83.5038 158.89C83.5038 158.89 80.3038 147.69 82.2078 144.81C84.1118 141.93 96.1678 142.41 98.3838 144.81C100.6 147.21 100.784 160.634 100.784 160.634C100.784 160.634 90.4958 158.33 85.9118 159.034" stroke="#263238" stroke-width="0.8" stroke-linecap="round" stroke-linejoin="round"/>
<path d="M77.8076 178.034C78.4396 178.834 100.656 182.786 104.504 180.25" stroke="#263238" stroke-width="0.8" stroke-linecap="round" stroke-linejoin="round"/>
<path d="M78.7603 173.77C80.3603 172.506 96.3603 175.666 99.6483 175.818C102.936 175.97 108.8 172.338 109.144 171.69C109.144 171.69 113.52 195.586 112.2 200.178C110.88 204.77 107.24 205.554 107.24 205.554" stroke="#263238" stroke-width="0.8" stroke-linecap="round" stroke-linejoin="round"/>
<path d="M82.8721 198.61C82.8721 198.61 83.8241 203.986 103.448 205.57" stroke="#263238" stroke-width="0.8" stroke-linecap="round" stroke-linejoin="round"/>
<path d="M114.68 178.674C115.48 178.354 121.152 177.754 123.224 176.458C123.398 179.133 123.39 181.816 123.2 184.49C123.2 184.49 117.032 186.89 115.92 186.394C114.808 185.898 114.384 182.434 114.384 182.434" stroke="#263238" stroke-width="0.8" stroke-linecap="round" stroke-linejoin="round"/>
<path d="M122.32 184.858C122.32 184.858 122.84 195.042 122.32 196.434C121.8 197.826 116.264 199.874 115.632 199.714C115 199.554 113.888 189.746 113.888 189.746" stroke="#263238" stroke-width="0.8" stroke-linecap="round" stroke-linejoin="round"/>
<path d="M101.808 135.946C101.808 135.946 107.56 135.946 109.616 139.746C111.672 143.546 113.984 165.474 114.416 166.77" stroke="#263238" stroke-width="0.8" stroke-linecap="round" stroke-linejoin="round"/>
<path d="M112.2 133.29C112.2 133.29 125 126.266 131.696 128.434C138.392 130.602 141.096 137.37 141.096 137.37C141.096 137.37 138.808 131.05 132.44 131.458C126.072 131.866 116.896 138.194 116.896 138.194" fill="#E8BF31"/>
<path d="M112.2 133.29C112.2 133.29 125 126.266 131.696 128.434C138.392 130.602 141.096 137.37 141.096 137.37C141.096 137.37 138.808 131.05 132.44 131.458C126.072 131.866 116.896 138.194 116.896 138.194" stroke="#263238" stroke-width="0.8" stroke-linecap="round" stroke-linejoin="round"/>
<path d="M132.44 131.426C132.44 131.426 139.64 130.826 141.848 134.202C144.056 137.578 141.848 146.354 141.848 146.354C141.848 146.354 143.744 148.594 140.472 150.21C137.2 151.826 128.408 152.706 126.32 149.522C124.232 146.338 125.352 132.754 132.44 131.426Z" fill="#263238"/>
<path d="M141.337 146.986C141.337 146.986 133.721 174.514 136.217 177.202C139.432 177.381 142.617 177.917 145.713 178.802C160.009 182.442 168.113 179.802 168.113 179.802L166.593 187.762C152.273 187.386 138.425 189.986 126.841 185.266C126.841 185.266 122.129 164.914 126.713 147.818C126.713 147.818 128.041 146.106 131.977 145.594C135.166 145.1 138.429 145.586 141.337 146.986Z" fill="white" stroke="#263238" stroke-width="0.8" stroke-linecap="round" stroke-linejoin="round"/>
<path d="M165.896 187.786C168.616 189.57 172.552 186.77 176.192 187.114C179.832 187.458 178.072 177.034 178.072 177.034C178.072 177.034 173.52 174.858 172.184 174.37C170.848 173.882 168.856 176.898 164.648 180.77" fill="white"/>
<path d="M165.896 187.786C168.616 189.57 172.552 186.77 176.192 187.114C179.832 187.458 178.072 177.034 178.072 177.034C178.072 177.034 173.52 174.858 172.184 174.37C170.848 173.882 168.856 176.898 164.648 180.77" stroke="#263238" stroke-width="0.8" stroke-linecap="round" stroke-linejoin="round"/>
<path d="M112.704 126.338C116.727 125.985 120.78 126.29 124.704 127.242" stroke="white" stroke-width="0.8" stroke-linecap="round" stroke-linejoin="round"/>
<path d="M126.057 149.018C126.057 149.018 124.825 147.218 126.057 146.354C126.057 146.354 122.473 143.594 122.985 140.754" stroke="white" stroke-width="0.8" stroke-linecap="round" stroke-linejoin="round"/>
<path d="M142.832 142.842L142.488 146.354C142.488 146.354 144.256 147.482 141.096 149.018" stroke="white" stroke-width="0.8" stroke-linecap="round" stroke-linejoin="round"/>
<path d="M144.328 167.81C144.328 167.81 140.536 170.682 138.368 170.21" stroke="white" stroke-width="0.8" stroke-linecap="round" stroke-linejoin="round"/>
<path d="M128.656 195.498C128.656 195.498 137.728 200.77 147.328 198.61" stroke="white" stroke-width="0.8" stroke-linecap="round" stroke-linejoin="round"/>
<path d="M173.28 178.034C174.99 178.263 176.681 178.621 178.336 179.106" stroke="#263238" stroke-width="0.8" stroke-linecap="round" stroke-linejoin="round"/>
<path d="M173.28 181.354C173.28 181.354 177.384 181.354 178.496 181.474" stroke="#263238" stroke-width="0.8" stroke-linecap="round" stroke-linejoin="round"/>
<path d="M173.28 184.034C173.28 184.034 178.44 183.882 178.336 184.402" stroke="#263238" stroke-width="0.8" stroke-linecap="round" stroke-linejoin="round"/>
<path d="M79.7124 347.834C79.7124 347.834 87.7604 347.034 92.0404 348.778" stroke="#263238" stroke-width="0.8" stroke-linecap="round" stroke-linejoin="round"/>
<path d="M81.6001 340.322C81.6001 340.322 86.0321 339.298 88.4081 340.322" stroke="#263238" stroke-width="0.8" stroke-linecap="round" stroke-linejoin="round"/>
<path d="M95.0806 341.082C95.0806 341.082 96.1686 343.082 95.8806 344.506" stroke="#263238" stroke-width="0.8" stroke-linecap="round" stroke-linejoin="round"/>
<path d="M105.296 346.434C103.365 346.626 101.42 346.626 99.4883 346.434" stroke="#263238" stroke-width="0.8" stroke-linecap="round" stroke-linejoin="round"/>
<path d="M158.4 341.082C158.4 341.082 161.344 344.506 161.344 345.458" stroke="#263238" stroke-width="0.8" stroke-linecap="round" stroke-linejoin="round"/>
<path d="M168.632 346.434C167.226 346.694 165.79 346.748 164.368 346.594" stroke="#263238" stroke-width="0.8" stroke-linecap="round" stroke-linejoin="round"/>
<path d="M142.528 348.778C142.528 348.778 151.544 347.354 156.928 348.778" stroke="#263238" stroke-width="0.8" stroke-linecap="round" stroke-linejoin="round"/>
<path d="M144.745 341.082C144.745 341.082 149.177 341.218 151.081 340.098" stroke="#263238" stroke-width="0.8" stroke-linecap="round" stroke-linejoin="round"/>
<path d="M125.08 236.746C125.08 236.746 120.208 266.074 113.88 273.034C113.88 273.034 105.656 295.778 102.384 301.834C99.1118 307.89 95.0718 327.306 95.0718 327.306" stroke="#263238" stroke-width="0.8" stroke-linecap="round" stroke-linejoin="round"/>
<path d="M101.808 270.33C101.808 270.33 104.816 265.946 108.208 270.33" stroke="#263238" stroke-width="0.8" stroke-linecap="round" stroke-linejoin="round"/>
<path d="M140.128 274.89C140.128 274.89 141.584 267.162 147.912 273.49" stroke="#263238" stroke-width="0.8" stroke-linecap="round" stroke-linejoin="round"/>
<path d="M147.913 202.89C147.913 202.89 151.657 218.986 151.025 227.866C151.025 227.866 153.137 261.09 152.505 270.33" stroke="#263238" stroke-width="0.8" stroke-linecap="round" stroke-linejoin="round"/>
<path d="M156 123.506C156 123.506 159.928 125.482 162.248 123.722" stroke="#263238" stroke-width="0.8" stroke-linecap="round" stroke-linejoin="round"/>
<path d="M292.503 328.034C292.503 328.034 290.823 310.354 294.239 293.986C297.655 277.618 291.039 275.682 288.303 280.17C285.567 284.658 284.679 299.522 284.679 299.522C284.679 299.522 283.303 284.458 280.935 276.778C277.463 265.522 273.735 256.946 268.783 259.482C263.031 262.41 276.399 282.682 279.031 306.41C279.031 306.41 268.263 295.322 263.103 284.986C257.943 274.65 251.679 280.93 256.279 290.186C260.879 299.442 271.839 302.826 277.879 312.642C277.879 312.642 262.799 303.65 259.751 309.098C258.031 312.17 264.167 312.818 266.903 313.482C280.199 316.682 286.359 330.498 286.359 330.498L292.503 328.034Z" fill="#E8BF31" stroke="#263238" stroke-width="0.8" stroke-linecap="round" stroke-linejoin="round"/>
<path opacity="0.2" d="M292.503 328.034C292.503 328.034 290.823 310.354 294.239 293.986C297.655 277.618 291.039 275.682 288.303 280.17C285.567 284.658 284.679 299.522 284.679 299.522C284.679 299.522 283.303 284.458 280.935 276.778C277.463 265.522 273.735 256.946 268.783 259.482C263.031 262.41 276.399 282.682 279.031 306.41C279.031 306.41 268.263 295.322 263.103 284.986C257.943 274.65 251.679 280.93 256.279 290.186C260.879 299.442 271.839 302.826 277.879 312.642C277.879 312.642 262.799 303.65 259.751 309.098C258.031 312.17 264.167 312.818 266.903 313.482C280.199 316.682 286.359 330.498 286.359 330.498L292.503 328.034Z" stroke="#263238" stroke-width="0.8" stroke-miterlimit="10"/>
<path d="M291.88 306.602C291.88 306.602 292.768 290.498 286.896 277.154C281.024 263.81 286.264 262.754 289.408 266.106C292.552 269.458 294.952 286.722 294.952 286.722C294.952 286.722 297.712 271.25 296.456 260.546C295.2 249.842 295.288 243.826 299.696 243.826C305.296 243.826 304.008 270.018 299.456 285.714C299.456 285.714 306.656 274.306 309.168 264.554C311.68 254.802 318.176 259.026 315.92 267.754C313.664 276.482 304.944 281.354 301.568 290.818C301.568 290.818 312.768 280.418 316.392 284.514C318.416 286.826 313.296 288.514 311.08 289.546C300.32 294.698 297.56 307.586 297.56 307.586L291.88 306.602Z" fill="#E8BF31" stroke="#263238" stroke-width="0.8" stroke-linecap="round" stroke-linejoin="round"/>
<path d="M289.864 276.49C294.856 287.746 295.144 304.17 295.144 304.17C295.144 304.17 301.704 271.538 300.056 257.77" stroke="#263238" stroke-width="0.8" stroke-linecap="round" stroke-linejoin="round"/>
<path d="M311.44 270.018C311.44 270.018 304.112 285.474 297.408 291.402" stroke="#263238" stroke-width="0.8" stroke-linecap="round" stroke-linejoin="round"/>
<path d="M311.44 286.674C311.44 286.674 299.056 294.674 296.016 299.522" stroke="#263238" stroke-width="0.8" stroke-linecap="round" stroke-linejoin="round"/>
<path d="M281.496 326.322C281.496 326.322 272.04 313.29 269.784 298.89C267.528 284.49 262.544 286.45 261.696 290.954C260.848 295.458 268.168 311.29 268.168 311.29C268.168 311.29 257.48 299.69 252.8 290.042C248.12 280.394 244.752 275.338 241.04 277.722C236.304 280.762 251.56 302.09 263.872 312.834C263.872 312.834 251.672 307.114 244.272 300.282C236.872 293.45 233.704 300.498 240.272 306.626C246.84 312.754 256.856 312.13 264.816 318.274C264.816 318.274 249.744 315.594 248.936 320.978C248.48 324.018 253.68 322.65 256.136 322.346C267.968 320.866 277.248 330.218 277.248 330.218L281.496 326.322Z" fill="#E8BF31" stroke="#263238" stroke-width="0.8" stroke-linecap="round" stroke-linejoin="round"/>
<path d="M266.912 299.89C268.8 312.066 277.432 326.034 277.432 326.034C277.432 326.034 254.28 302.13 248.248 289.666" stroke="#263238" stroke-width="0.8" stroke-linecap="round" stroke-linejoin="round"/>
<path d="M245.272 306.09C245.272 306.09 259.784 315.138 268.632 316.49" stroke="#263238" stroke-width="0.8" stroke-linecap="round" stroke-linejoin="round"/>
<path d="M254.272 320.122C254.272 320.122 268.992 320.122 274.184 322.602" stroke="#263238" stroke-width="0.8" stroke-linecap="round" stroke-linejoin="round"/>
<path d="M315.936 270.29C315.936 270.29 327.984 271.242 328.48 280.13C328.48 280.13 316.288 285.738 315.936 270.29Z" fill="#E8BF31" stroke="#263238" stroke-width="0.8" stroke-linecap="round" stroke-linejoin="round"/>
<path d="M339.76 272.49C339.76 272.49 346.488 263.394 357.36 268.058C357.36 268.066 350.72 279.066 339.76 272.49Z" fill="#E8BF31" stroke="#263238" stroke-width="0.8" stroke-linecap="round" stroke-linejoin="round"/>
<path d="M356.44 243.778C356.44 243.778 358.4 261.29 342.448 256.49C342.448 256.49 347.504 243.594 356.44 243.778Z" fill="#E8BF31" stroke="#263238" stroke-width="0.8" stroke-linecap="round" stroke-linejoin="round"/>
<path d="M336.88 234.042C336.88 234.042 349.48 240.834 340.216 251.138C340.216 251.138 331.384 243.778 336.88 234.042Z" fill="#E8BF31" stroke="#263238" stroke-width="0.8" stroke-linecap="round" stroke-linejoin="round"/>
<path d="M321.384 249.674C321.384 249.674 335.08 248.29 335.08 260.97C335.08 260.97 321.384 261.514 321.384 249.674Z" fill="#E8BF31" stroke="#263238" stroke-width="0.8" stroke-linecap="round" stroke-linejoin="round"/>
<path d="M334.296 298.226C334.296 298.226 328.056 285.122 334.048 271.77C340.04 258.418 342.048 247.186 338.936 239.266" stroke="#263238" stroke-width="0.8" stroke-linecap="round" stroke-linejoin="round"/>
<path d="M325.88 253.082C325.88 253.082 334.088 256.346 336.88 264.802" stroke="#263238" stroke-width="0.8" stroke-linecap="round" stroke-linejoin="round"/>
<path d="M352.112 250.778C352.112 250.778 347.368 257.242 339.312 256.546" stroke="#263238" stroke-width="0.8" stroke-linecap="round" stroke-linejoin="round"/>
<path d="M352.112 269.922C352.112 269.922 338.968 273.714 333.712 272.474" stroke="#263238" stroke-width="0.8" stroke-linecap="round" stroke-linejoin="round"/>
<path d="M319.864 274.29C319.864 274.29 325.736 280.738 331.648 280.634" stroke="#263238" stroke-width="0.8" stroke-linecap="round" stroke-linejoin="round"/>
<path d="M239.32 315.93C239.32 315.93 228.856 318.49 229.72 326.386C229.68 326.386 241.224 329.586 239.32 315.93Z" fill="#E8BF31" stroke="#263238" stroke-width="0.8" stroke-linecap="round" stroke-linejoin="round"/>
<path d="M218.656 321.29C218.656 321.29 211.456 314.242 202.528 319.906C202.528 319.89 209.944 328.626 218.656 321.29Z" fill="#E8BF31" stroke="#263238" stroke-width="0.8" stroke-linecap="round" stroke-linejoin="round"/>
<path d="M199.872 298.37C199.872 298.37 200.672 314.058 214.008 307.538C214.008 307.538 207.712 296.93 199.872 298.37Z" fill="#E8BF31" stroke="#263238" stroke-width="0.8" stroke-linecap="round" stroke-linejoin="round"/>
<path d="M215.704 286.994C215.704 286.994 205.6 294.778 215.2 302.53C215.2 302.53 221.936 294.786 215.704 286.994Z" fill="#E8BF31" stroke="#263238" stroke-width="0.8" stroke-linecap="round" stroke-linejoin="round"/>
<path d="M231.584 298.554C231.584 298.554 219.328 299.29 221.136 310.458C221.136 310.458 233.28 308.978 231.584 298.554Z" fill="#E8BF31" stroke="#263238" stroke-width="0.8" stroke-linecap="round" stroke-linejoin="round"/>
<path d="M227.143 343.154C227.143 343.154 230.775 330.722 223.591 319.826C216.407 308.93 213.015 299.314 214.639 291.89" stroke="#263238" stroke-width="0.8" stroke-linecap="round" stroke-linejoin="round"/>
<path d="M228.112 302.194C228.112 302.194 221.344 306.242 220.112 314.09" stroke="#263238" stroke-width="0.8" stroke-linecap="round" stroke-linejoin="round"/>
<path d="M204.688 303.914C204.688 303.914 209.784 308.93 216.76 307.17" stroke="#263238" stroke-width="0.8" stroke-linecap="round" stroke-linejoin="round"/>
<path d="M207.416 320.778C207.416 320.778 219.528 322.234 223.952 320.394" stroke="#263238" stroke-width="0.8" stroke-linecap="round" stroke-linejoin="round"/>
<path d="M236.44 320.018C236.44 320.018 232.184 326.53 226.968 327.282" stroke="#263238" stroke-width="0.8" stroke-linecap="round" stroke-linejoin="round"/>
<path d="M354.624 300.074L353.296 300.026L353.632 296.154C353.704 295.776 353.651 295.386 353.48 295.042C353.2 294.61 352.624 294.522 352.12 294.41C350.649 294.074 349.347 293.223 348.448 292.01C347.808 291.138 347.352 290.066 346.424 289.514C345.128 288.714 343.496 289.29 342.048 289.706C340.6 290.122 338.744 290.242 337.88 289.01C337.376 288.29 337.344 287.25 336.648 286.706C335.952 286.162 334.672 286.514 333.752 286.97C330.208 288.714 326.248 290.97 325.568 294.882C325.328 296.218 321.184 301.794 319.704 302.538C317.12 303.826 312.232 301.362 309.608 300.49C303.978 300.354 298.364 299.819 292.808 298.89C291.208 298.89 289.608 300.49 288.008 302.09C287.208 302.89 287.208 303.69 286.408 304.49C284.008 306.89 280.008 308.49 279.208 312.49C279.208 318.09 272.808 321.29 268.008 323.69C260.808 326.89 253.608 327.69 246.408 330.89C242.408 332.49 237.608 332.49 232.808 332.49C227.208 337.29 223.208 342.89 219.208 349.29C218.408 350.09 217.608 351.69 216.008 351.69C164.808 351.69 112.808 351.69 61.3604 351.41V369.666H354.96L354.624 300.074Z" fill="white"/>
<path d="M61.3525 351.41C112.801 351.69 164.801 351.69 216.001 351.69C217.601 351.69 218.401 350.09 219.201 349.29C223.201 342.89 227.201 337.29 232.801 332.49C237.601 332.49 242.401 332.49 246.401 330.89C253.601 327.69 260.801 326.89 268.001 323.69C272.801 321.29 279.201 318.09 279.201 312.49C280.001 308.49 284.001 306.89 286.401 304.49C287.201 303.69 287.201 302.89 288.001 302.09C289.601 300.49 291.201 298.89 292.801 298.89C298.356 299.819 303.97 300.354 309.601 300.49C312.225 301.362 317.113 303.826 319.697 302.538C321.177 301.794 325.297 296.218 325.561 294.882C326.241 290.994 330.201 288.714 333.745 286.97C334.665 286.514 335.833 286.082 336.641 286.706C337.449 287.33 337.369 288.306 337.873 289.01C338.737 290.242 340.585 290.114 342.041 289.706C343.497 289.298 345.121 288.746 346.417 289.514C347.345 290.066 347.801 291.114 348.441 292.01C349.339 293.223 350.641 294.074 352.113 294.41C352.617 294.522 353.193 294.61 353.473 295.042" stroke="#263238" stroke-width="0.8" stroke-linecap="round" stroke-linejoin="round"/>
<path d="M311.44 315.93C314.856 316.186 319.808 313.89 319.864 314.09C319.92 314.29 325.88 315.01 325.88 315.01C325.88 315.01 333.776 317.258 335.08 315.93C336.384 314.602 340.408 315.514 343.616 315.218C346.824 314.922 350.096 317.522 350.096 317.522C350.096 317.522 355.76 322.378 356.496 322.602C357.232 322.826 362.944 324.498 365.16 326.034" stroke="#263238" stroke-width="0.8" stroke-linecap="round" stroke-linejoin="round"/>
<path d="M216 351.69H229.6C229.6 351.69 238.4 347.154 242.912 347.65C247.424 348.146 251.272 351.41 251.272 351.41H259.048L268.6 352.61H274.904" stroke="#263238" stroke-width="0.8" stroke-linecap="round" stroke-linejoin="round"/>
<path d="M306.944 331.882C305.048 329.794 297.12 329.354 296.016 327.362C294.912 325.37 287.96 329.93 287.008 329.226C286.056 328.522 281.048 329.786 280.232 332.162C279.416 334.538 279.816 334.97 276.608 336.162" stroke="#263238" stroke-width="0.8" stroke-linecap="round" stroke-linejoin="round"/>
<path d="M357.752 303.778C357.147 303.247 356.373 302.947 355.568 302.931C354.763 302.915 353.978 303.184 353.352 303.69C353.171 303.863 352.979 304.023 352.776 304.17C352.197 304.421 351.563 304.518 350.936 304.45C349.515 304.484 348.143 304.975 347.024 305.85C346.692 306.173 346.301 306.428 345.872 306.602C345.609 306.663 345.341 306.697 345.072 306.706C344.365 306.799 343.695 307.075 343.128 307.506" stroke="#263238" stroke-width="0.8" stroke-linecap="round" stroke-linejoin="round"/>
<path d="M315.616 352.01C319.096 353.546 323.392 352.194 326.016 349.418C328.096 347.202 329.784 343.906 332.824 343.778C333.624 343.778 334.424 343.954 335.224 343.962C337.024 343.962 338.648 342.994 340.32 342.362C341.992 341.73 344.08 341.386 345.432 342.57C346.328 343.37 346.704 344.642 347.68 345.33C348.656 346.018 349.912 345.914 351.064 346.13C352.216 346.346 353.464 347.282 353.224 348.434" stroke="#263238" stroke-width="0.8" stroke-linecap="round" stroke-linejoin="round"/>
</svg>
