<svg width="25" height="25" viewBox="0 0 25 25" fill="none" xmlns="http://www.w3.org/2000/svg">
<path d="M19.9512 8.50149L19.9513 6.10149C19.9515 2.74149 16.6783 0.101667 12.5123 0.101893C8.34627 0.102119 5.07283 2.7423 5.07265 6.10229L5.07252 8.50229C2.54315 8.50243 0.608839 10.0625 0.608729 12.1025L0.608277 20.5025C0.608167 22.5425 2.54231 24.1024 5.07168 24.1023L19.9503 24.1015C22.4797 24.1013 24.414 22.5412 24.4141 20.5012L24.4146 12.1012C24.4147 10.0612 22.4805 8.50135 19.9512 8.50149ZM8.04838 6.10213C8.04849 4.06213 9.9828 2.50203 12.5122 2.50189C15.0415 2.50176 16.9757 4.06165 16.9756 6.10165L16.9754 8.50165L8.04825 8.50213L8.04838 6.10213ZM14.1481 16.3018L13.9993 16.4218L13.9992 18.1018C13.9992 18.8218 13.404 19.3018 12.5113 19.3019C11.6185 19.3019 11.0234 18.822 11.0235 18.102L11.0236 16.422C10.1309 15.702 9.98214 14.622 10.8749 13.902C11.7677 13.1819 13.1067 13.0619 13.9994 13.7818C14.8921 14.3818 15.0408 15.5818 14.1481 16.3018Z" fill="black"/>
</svg>
