<svg width="230" height="51" viewBox="0 0 230 51" fill="none" xmlns="http://www.w3.org/2000/svg">
<path d="M215.356 40.5241C214.519 40.5241 213.818 40.4562 213.252 40.3204C212.709 40.2073 212.359 40.1282 212.2 40.0829V36.893H214.27C214.836 36.893 215.345 36.7573 215.797 36.4858C216.25 36.237 216.646 35.8976 216.985 35.4678C217.325 35.0606 217.573 34.6194 217.732 34.1443L210.741 16.2946H215.73L218.784 24.5408C218.919 24.9254 219.066 25.4118 219.225 26C219.406 26.5656 219.587 27.1651 219.768 27.7985C219.949 28.4094 220.096 28.9523 220.209 29.4274H220.379C220.469 29.1107 220.571 28.7374 220.684 28.3075C220.797 27.8777 220.91 27.4366 221.023 26.9841C221.159 26.5316 221.284 26.1018 221.397 25.6946C221.532 25.2647 221.646 24.8914 221.736 24.5747L224.281 16.2946H229.032L222.958 33.296C222.618 34.2914 222.222 35.2189 221.77 36.0786C221.34 36.9609 220.831 37.7301 220.243 38.3862C219.655 39.0649 218.953 39.5852 218.139 39.9472C217.347 40.3318 216.42 40.5241 215.356 40.5241Z" fill="#401A6D"/>
<path d="M199.506 34.5515C198.918 34.5515 198.284 34.4836 197.606 34.3479C196.95 34.2121 196.328 33.9746 195.739 33.6352C195.151 33.2733 194.665 32.7642 194.28 32.1082C193.918 31.4295 193.737 30.5698 193.737 29.5291C193.737 28.2849 194.009 27.2555 194.552 26.4411C195.095 25.6266 195.864 24.9932 196.859 24.5407C197.877 24.0656 199.088 23.7376 200.49 23.5566C201.893 23.3756 203.443 23.2851 205.139 23.2851V21.9617C205.139 21.4413 205.049 20.9889 204.868 20.6043C204.709 20.2197 204.415 19.9143 203.985 19.688C203.578 19.4618 203.001 19.3487 202.255 19.3487C201.508 19.3487 200.897 19.4392 200.422 19.6202C199.97 19.8012 199.642 20.0387 199.438 20.3328C199.257 20.6043 199.167 20.9097 199.167 21.249V21.6563H194.586C194.563 21.5431 194.552 21.4413 194.552 21.3509C194.552 21.2377 194.552 21.102 194.552 20.9436C194.552 19.903 194.868 19.0094 195.502 18.2628C196.135 17.4936 197.029 16.9054 198.183 16.4982C199.336 16.091 200.682 15.8874 202.221 15.8874C203.872 15.8874 205.252 16.1023 206.361 16.5321C207.492 16.962 208.352 17.5954 208.94 18.4325C209.551 19.2695 209.856 20.3215 209.856 21.5884V29.6988C209.856 30.106 209.969 30.4114 210.196 30.615C210.444 30.796 210.716 30.8865 211.01 30.8865H212.13V33.9746C211.904 34.0877 211.553 34.2008 211.078 34.3139C210.603 34.4497 210.026 34.5175 209.347 34.5175C208.691 34.5175 208.103 34.4157 207.583 34.2121C207.085 34.0311 206.666 33.771 206.327 33.4316C205.988 33.0697 205.75 32.6398 205.614 32.1421H205.377C204.992 32.6172 204.517 33.0357 203.952 33.3977C203.409 33.7597 202.764 34.0425 202.017 34.2461C201.293 34.4497 200.456 34.5515 199.506 34.5515ZM201.101 30.9883C201.734 30.9883 202.3 30.8978 202.798 30.7168C203.295 30.5132 203.714 30.2531 204.053 29.9363C204.393 29.597 204.653 29.1898 204.834 28.7147C205.037 28.2396 205.139 27.7306 205.139 27.1876V26.2035C203.872 26.2035 202.741 26.294 201.746 26.475C200.75 26.6334 199.959 26.9162 199.37 27.3234C198.805 27.7306 198.522 28.2962 198.522 29.0201C198.522 29.4273 198.624 29.778 198.827 30.0721C199.031 30.3662 199.325 30.5924 199.71 30.7508C200.094 30.9091 200.558 30.9883 201.101 30.9883Z" fill="#401A6D"/>
<path d="M177.961 34.1441V9.5753H182.678V23.7261L188.922 16.2944H194.453L188.345 23.2849L194.759 34.1441H189.363L185.257 26.6105L182.678 29.1217V34.1441H177.961Z" fill="#401A6D"/>
<path d="M159.002 34.1443V32.9226C159.002 31.9046 159.183 30.977 159.545 30.14C159.907 29.3029 160.404 28.5337 161.038 27.8324C161.671 27.1311 162.372 26.4637 163.142 25.8303C163.911 25.1968 164.703 24.586 165.517 23.9978C166.445 23.2965 167.316 22.6065 168.13 21.9278C168.967 21.2491 169.646 20.5251 170.166 19.7559C170.686 18.9641 170.947 18.0931 170.947 17.143C170.947 16.6905 170.834 16.238 170.607 15.7856C170.381 15.3331 170.019 14.9598 169.521 14.6657C169.046 14.349 168.402 14.1906 167.587 14.1906C166.75 14.1906 166.06 14.3377 165.517 14.6318C164.974 14.9033 164.556 15.2992 164.261 15.8195C163.99 16.3172 163.854 16.9393 163.854 17.6859V18.9076H159.307C159.284 18.7944 159.262 18.6361 159.239 18.4325C159.217 18.2289 159.205 17.98 159.205 17.6859C159.205 16.0344 159.578 14.677 160.325 13.6137C161.094 12.5505 162.124 11.7586 163.413 11.2383C164.725 10.718 166.207 10.4578 167.859 10.4578C169.352 10.4578 170.596 10.6727 171.591 11.1026C172.609 11.5098 173.424 12.0641 174.035 12.7654C174.646 13.4441 175.075 14.1906 175.324 15.0051C175.596 15.7969 175.731 16.5661 175.731 17.3126C175.731 18.3759 175.539 19.3487 175.155 20.231C174.77 21.1133 174.25 21.9391 173.594 22.7083C172.937 23.4774 172.157 24.224 171.252 24.9479C170.347 25.6493 169.386 26.3506 168.368 27.0519C167.847 27.4139 167.35 27.7645 166.874 28.1039C166.422 28.4432 166.026 28.7713 165.687 29.088C165.37 29.3821 165.121 29.6762 164.94 29.9703H175.901V34.1443H159.002Z" fill="#401A6D"/>
<path d="M154.868 34.5516C153.737 34.5516 152.821 34.3479 152.12 33.9407C151.418 33.5335 150.909 32.9906 150.593 32.3119C150.276 31.6105 150.118 30.8414 150.118 30.0043V19.9257H147.912V16.2947H150.287L151.17 11.2044H154.835V16.2947H158.092V19.9257H154.835V29.2238C154.835 29.7668 154.959 30.1853 155.208 30.4794C155.457 30.7509 155.864 30.8866 156.429 30.8866H158.092V34.0086C157.821 34.0991 157.504 34.1783 157.142 34.2461C156.78 34.3366 156.396 34.4045 155.988 34.4497C155.581 34.5176 155.208 34.5516 154.868 34.5516Z" fill="#401A6D"/>
<path d="M130.823 34.1443V16.2946H134.726L135.099 18.7379H135.337C135.744 18.1497 136.23 17.6407 136.796 17.2108C137.384 16.781 138.04 16.4529 138.764 16.2267C139.488 16.0005 140.28 15.8874 141.14 15.8874C142.316 15.8874 143.345 16.1023 144.228 16.5321C145.11 16.962 145.789 17.6407 146.264 18.5682C146.762 19.4958 147.01 20.7061 147.01 22.1992V34.1443H142.293V22.9458C142.293 22.3802 142.226 21.9051 142.09 21.5205C141.954 21.1133 141.75 20.7853 141.479 20.5364C141.23 20.2649 140.913 20.0726 140.529 19.9595C140.144 19.8464 139.714 19.7899 139.239 19.7899C138.538 19.7899 137.905 19.9595 137.339 20.2989C136.773 20.6382 136.332 21.102 136.015 21.6902C135.699 22.2784 135.54 22.9571 135.54 23.7263V34.1443H130.823Z" fill="#401A6D"/>
<path d="M120.813 34.5515C118.845 34.5515 117.194 34.2234 115.859 33.5674C114.524 32.8887 113.517 31.8593 112.839 30.4793C112.16 29.0993 111.821 27.346 111.821 25.2194C111.821 23.0702 112.16 21.3169 112.839 19.9595C113.517 18.5795 114.513 17.5615 115.825 16.9054C117.16 16.2267 118.788 15.8874 120.711 15.8874C122.521 15.8874 124.048 16.2154 125.293 16.8715C126.537 17.5049 127.476 18.5003 128.109 19.8577C128.743 21.1925 129.059 22.9232 129.059 25.0497V26.2714H116.605C116.651 27.3121 116.809 28.1944 117.08 28.9183C117.374 29.6422 117.816 30.1852 118.404 30.5472C119.015 30.8865 119.818 31.0562 120.813 31.0562C121.356 31.0562 121.843 30.9883 122.272 30.8526C122.725 30.7168 123.109 30.5132 123.426 30.2418C123.743 29.9703 123.992 29.6309 124.173 29.2237C124.354 28.8165 124.444 28.3527 124.444 27.8324H129.059C129.059 28.9636 128.856 29.9477 128.449 30.7847C128.041 31.6218 127.476 32.3231 126.752 32.8887C126.028 33.4316 125.157 33.8502 124.139 34.1443C123.143 34.4157 122.035 34.5515 120.813 34.5515ZM116.673 23.2851H124.207C124.207 22.6064 124.116 22.0182 123.935 21.5205C123.777 21.0228 123.551 20.6156 123.257 20.2989C122.962 19.9822 122.6 19.7559 122.171 19.6202C121.763 19.4618 121.3 19.3826 120.779 19.3826C119.92 19.3826 119.196 19.5297 118.607 19.8238C118.042 20.0953 117.601 20.5251 117.284 21.1133C116.99 21.6789 116.786 22.4028 116.673 23.2851Z" fill="#401A6D"/>
<path d="M96.7053 40.5241C95.9135 40.5241 95.1669 40.3544 94.4656 40.015C93.7643 39.6983 93.1987 39.2232 92.7689 38.5898C92.339 37.9563 92.1241 37.1985 92.1241 36.3161C92.1241 35.3207 92.4069 34.5289 92.9725 33.9407C93.5607 33.3299 94.2167 32.8774 94.9407 32.5833C94.4203 32.2892 93.9905 31.9046 93.6512 31.4295C93.3344 30.9545 93.1761 30.4002 93.1761 29.7667C93.1761 28.8844 93.4928 28.1718 94.1262 27.6289C94.7823 27.0633 95.5289 26.7013 96.3659 26.5429C95.5289 26.0226 94.8728 25.3665 94.3977 24.5747C93.9453 23.7603 93.719 22.8554 93.719 21.8599C93.719 20.5704 94.0358 19.4845 94.6692 18.6022C95.3253 17.7199 96.2528 17.0525 97.4519 16.6001C98.6735 16.125 100.11 15.8874 101.762 15.8874C102.418 15.8874 103.028 15.9214 103.594 15.9892C104.182 16.0571 104.714 16.1702 105.189 16.3286C106.026 15.8309 106.592 15.2879 106.886 14.6997C107.202 14.0889 107.372 13.6025 107.395 13.2405H111.772C111.772 14.0776 111.614 14.8015 111.297 15.4123C111.003 16.0232 110.573 16.5322 110.008 16.9394C109.442 17.324 108.763 17.6068 107.972 17.7878C108.56 18.2855 109.012 18.885 109.329 19.5863C109.646 20.2876 109.804 21.0455 109.804 21.8599C109.804 23.1268 109.499 24.2128 108.888 25.1177C108.277 26 107.406 26.6787 106.275 27.1538C105.166 27.6289 103.832 27.8664 102.271 27.8664H99.5558C99.0129 27.8664 98.6056 27.9682 98.3342 28.1718C98.0627 28.3528 97.9269 28.6243 97.9269 28.9862C97.9269 29.2803 98.0401 29.5405 98.2663 29.7667C98.5151 29.9703 98.911 30.0722 99.454 30.0722H106.886C108.379 30.0722 109.567 30.5359 110.449 31.4635C111.354 32.3684 111.806 33.5335 111.806 34.9588C111.806 36.0447 111.523 37.0062 110.958 37.8432C110.392 38.6803 109.612 39.3363 108.616 39.8114C107.621 40.2865 106.479 40.5241 105.189 40.5241H96.7053ZM98.6735 37.3681H104.951C105.359 37.3681 105.721 37.2889 106.037 37.1306C106.354 36.9948 106.603 36.7912 106.784 36.5198C106.965 36.2709 107.055 35.9768 107.055 35.6375C107.055 35.0493 106.874 34.6081 106.512 34.314C106.15 34.0199 105.698 33.8728 105.155 33.8728H98.6735C98.1305 33.8728 97.6781 34.0312 97.3161 34.3479C96.9768 34.6647 96.8071 35.0832 96.8071 35.6035C96.8071 36.1239 96.9768 36.5424 97.3161 36.8591C97.6781 37.1985 98.1305 37.3681 98.6735 37.3681ZM101.762 24.8123C102.87 24.8123 103.707 24.5634 104.273 24.0657C104.861 23.5454 105.155 22.8101 105.155 21.8599C105.155 20.9098 104.861 20.1858 104.273 19.6881C103.707 19.1678 102.87 18.9076 101.762 18.9076C100.676 18.9076 99.8386 19.1678 99.2504 19.6881C98.6848 20.1858 98.402 20.9098 98.402 21.8599C98.402 22.4708 98.5265 23.0024 98.7753 23.4549C99.0242 23.9073 99.3974 24.2467 99.8952 24.4729C100.393 24.6992 101.015 24.8123 101.762 24.8123Z" fill="#401A6D"/>
<path d="M82.5924 34.1441V16.2944H86.4949L86.8682 19.077H87.1057C87.3319 18.4888 87.6261 17.9572 87.988 17.4821C88.35 16.9844 88.8025 16.5885 89.3454 16.2944C89.8884 16.0003 90.5218 15.8532 91.2458 15.8532C91.6303 15.8532 91.981 15.8985 92.2977 15.989C92.6145 16.0568 92.852 16.1247 93.0104 16.1926V20.4684H91.5512C90.8498 20.4684 90.2277 20.5702 89.6848 20.7738C89.1644 20.9548 88.7233 21.2489 88.3613 21.6561C87.9993 22.0633 87.7279 22.561 87.5469 23.1492C87.3885 23.7374 87.3093 24.4274 87.3093 25.2192V34.1441H82.5924Z" fill="#401A6D"/>
<path d="M69.3903 34.5516C67.2637 34.5516 65.4312 34.2122 63.8928 33.5335C62.3771 32.8548 61.212 31.8368 60.3976 30.4794C59.5831 29.0994 59.1759 27.3913 59.1759 25.3552V10.8651H64.2661V25.2195C64.2661 26.8936 64.7073 28.1831 65.5896 29.0881C66.4719 29.9704 67.7388 30.4115 69.3903 30.4115C71.0418 30.4115 72.3087 29.9704 73.191 29.0881C74.0959 28.1831 74.5484 26.8936 74.5484 25.2195V10.8651H79.6386V25.3552C79.6386 27.3913 79.2314 29.0994 78.4169 30.4794C77.6025 31.8368 76.4261 32.8548 74.8877 33.5335C73.372 34.2122 71.5395 34.5516 69.3903 34.5516Z" fill="#401A6D"/>
<path d="M0 25.0377C0 11.2098 11.2098 0 25.0377 0C38.8657 0 50.0754 11.2098 50.0754 25.0377C50.0754 38.8657 38.8657 50.0754 25.0377 50.0754C11.2098 50.0754 0 38.8657 0 25.0377Z" fill="#401A6D"/>
<path d="M8.51382 17.4629C19.5974 10.4715 30.3023 9.57673 37.3652 12.1248C40.712 13.3322 43.4362 15.4012 44.7362 18.1751C47.4817 18.6005 50.2606 19.3175 53.0204 20.3841L51.4597 24.4222C49.4726 23.6542 47.4698 23.0889 45.477 22.6997C45.2568 24.5491 44.4214 26.403 42.9985 28.1357C38.4049 33.729 30.9066 37.2813 24.3848 38.6283C21.1116 39.3043 17.9028 39.4646 15.2766 38.9434C12.7251 38.437 10.1293 37.1346 9.2744 34.3827C8.81473 32.9029 9.10489 31.419 9.7124 30.1361C10.3169 28.8596 11.2939 27.6437 12.4771 26.5292C14.8483 24.2959 18.339 22.1965 22.4699 20.6094C27.1414 18.8147 32.7785 17.6203 38.7808 17.6867C38.0145 17.1266 37.0567 16.6159 35.896 16.1971C30.3633 14.2011 21.0505 14.6735 10.8236 21.1245L8.51382 17.4629ZM24.0225 24.6507C20.2734 26.091 17.3083 27.926 15.4455 29.6806C14.5117 30.5601 13.927 31.3517 13.6251 31.9892C12.8246 33.6797 14.6867 34.4124 16.1195 34.6968C17.995 35.069 20.5853 34.9923 23.5091 34.3885C29.381 33.1757 35.8677 29.997 39.6528 25.388C45.3288 18.4767 26.8944 23.5473 24.0225 24.6507Z" fill="#F0EBF5"/>
</svg>
