<svg width="115" height="30" viewBox="0 0 115 30" fill="none" xmlns="http://www.w3.org/2000/svg">
<path d="M104.617 19.9688V5.60004H107.397V13.876L111.077 9.52961H114.337L110.737 13.6179L114.517 19.9688H111.337L108.917 15.5629L107.397 17.0315V19.9688H104.617Z" fill="#F0EBF5"/>
<path d="M93.4434 19.969V19.2545C93.4434 18.6591 93.55 18.1167 93.7634 17.6271C93.9767 17.1376 94.27 16.6877 94.6434 16.2776C95.0167 15.8674 95.43 15.4771 95.8834 15.1067C96.3367 14.7362 96.8034 14.379 97.2834 14.035C97.83 13.6248 98.3434 13.2213 98.8234 12.8243C99.3167 12.4274 99.7167 12.004 100.023 11.5542C100.33 11.0911 100.483 10.5817 100.483 10.026C100.483 9.76138 100.417 9.49676 100.283 9.23214C100.15 8.96753 99.9367 8.74922 99.6434 8.57722C99.3634 8.39198 98.9834 8.29937 98.5034 8.29937C98.01 8.29937 97.6034 8.38537 97.2834 8.55737C96.9634 8.71614 96.7167 8.94768 96.5434 9.25199C96.3834 9.54307 96.3034 9.90692 96.3034 10.3435V11.058H93.6234C93.61 10.9919 93.5967 10.8992 93.5834 10.7802C93.57 10.6611 93.5634 10.5155 93.5634 10.3435C93.5634 9.37768 93.7834 8.58383 94.2234 7.96198C94.6767 7.34013 95.2834 6.87705 96.0434 6.57274C96.8167 6.26843 97.69 6.11627 98.6634 6.11627C99.5434 6.11627 100.277 6.24197 100.863 6.49335C101.463 6.73151 101.943 7.05566 102.303 7.46582C102.663 7.86275 102.917 8.29937 103.063 8.77568C103.223 9.23876 103.303 9.68861 103.303 10.1252C103.303 10.7471 103.19 11.316 102.963 11.832C102.737 12.348 102.43 12.8309 102.043 13.2808C101.657 13.7306 101.197 14.1673 100.663 14.5907C100.13 15.0008 99.5634 15.411 98.9634 15.8211C98.6567 16.0328 98.3634 16.2379 98.0834 16.4364C97.8167 16.6348 97.5834 16.8267 97.3834 17.0119C97.1967 17.1839 97.05 17.3559 96.9434 17.5279H103.403V19.969H93.4434Z" fill="#F0EBF5"/>
<path d="M91.0082 20.2071C90.3415 20.2071 89.8015 20.088 89.3882 19.8498C88.9749 19.6117 88.6749 19.2941 88.4882 18.8972C88.3015 18.487 88.2082 18.0372 88.2082 17.5477V11.6533H86.9082V9.52974H88.3082L88.8282 6.5528H90.9882V9.52974H92.9082V11.6533H90.9882V17.0912C90.9882 17.4087 91.0615 17.6535 91.2082 17.8255C91.3549 17.9843 91.5949 18.0637 91.9282 18.0637H92.9082V19.8895C92.7482 19.9424 92.5615 19.9888 92.3482 20.0284C92.1349 20.0814 91.9082 20.1211 91.6682 20.1475C91.4282 20.1872 91.2082 20.2071 91.0082 20.2071Z" fill="#F0EBF5"/>
<path d="M76.8359 19.9689V9.52978H79.1359L79.3559 10.9587H79.4959C79.7359 10.6147 80.0226 10.317 80.3559 10.0656C80.7026 9.81425 81.0893 9.6224 81.5159 9.49009C81.9426 9.35778 82.4093 9.29163 82.9159 9.29163C83.6093 9.29163 84.2159 9.41732 84.7359 9.66871C85.2559 9.92009 85.6559 10.317 85.9359 10.8595C86.2293 11.402 86.3759 12.1098 86.3759 12.983V19.9689H83.5959V13.4197C83.5959 13.0889 83.5559 12.811 83.4759 12.5861C83.3959 12.348 83.2759 12.1561 83.1159 12.0106C82.9693 11.8518 82.7826 11.7393 82.5559 11.6732C82.3293 11.607 82.0759 11.574 81.7959 11.574C81.3826 11.574 81.0093 11.6732 80.6759 11.8716C80.3426 12.0701 80.0826 12.3413 79.8959 12.6853C79.7093 13.0293 79.6159 13.4263 79.6159 13.8761V19.9689H76.8359Z" fill="#F0EBF5"/>
<path d="M70.9367 20.2071C69.7767 20.2071 68.8034 20.0153 68.0167 19.6316C67.2301 19.2346 66.6367 18.6326 66.2367 17.8255C65.8367 17.0185 65.6367 15.9931 65.6367 14.7494C65.6367 13.4924 65.8367 12.467 66.2367 11.6732C66.6367 10.8661 67.2234 10.2707 67.9967 9.88702C68.7834 9.49009 69.7434 9.29163 70.8767 9.29163C71.9434 9.29163 72.8434 9.48347 73.5767 9.86717C74.3101 10.2376 74.8634 10.8198 75.2367 11.6136C75.6101 12.3943 75.7967 13.4064 75.7967 14.6501V15.3646H68.4567C68.4834 15.9732 68.5767 16.4892 68.7367 16.9126C68.9101 17.336 69.1701 17.6535 69.5167 17.8652C69.8767 18.0637 70.3501 18.1629 70.9367 18.1629C71.2567 18.1629 71.5434 18.1232 71.7967 18.0439C72.0634 17.9645 72.2901 17.8454 72.4767 17.6866C72.6634 17.5278 72.8101 17.3294 72.9167 17.0912C73.0234 16.8531 73.0767 16.5818 73.0767 16.2775H75.7967C75.7967 16.9391 75.6767 17.5146 75.4367 18.0042C75.1967 18.4937 74.8634 18.9039 74.4367 19.2346C74.0101 19.5522 73.4967 19.7969 72.8967 19.9689C72.3101 20.1277 71.6567 20.2071 70.9367 20.2071ZM68.4967 13.6181H72.9367C72.9367 13.2212 72.8834 12.8772 72.7767 12.5861C72.6834 12.295 72.5501 12.0569 72.3767 11.8716C72.2034 11.6864 71.9901 11.5541 71.7367 11.4747C71.4967 11.3821 71.2234 11.3358 70.9167 11.3358C70.4101 11.3358 69.9834 11.4218 69.6367 11.5938C69.3034 11.7526 69.0434 12.004 68.8567 12.348C68.6834 12.6787 68.5634 13.1021 68.4967 13.6181Z" fill="#F0EBF5"/>
<path d="M56.7273 23.7C56.2607 23.7 55.8207 23.6008 55.4073 23.4023C54.994 23.2171 54.6607 22.9393 54.4073 22.5688C54.154 22.1983 54.0273 21.7551 54.0273 21.2391C54.0273 20.6569 54.194 20.1939 54.5273 19.8498C54.874 19.4926 55.2607 19.228 55.6873 19.056C55.3807 18.884 55.1273 18.6591 54.9273 18.3812C54.7407 18.1034 54.6473 17.7792 54.6473 17.4088C54.6473 16.8927 54.834 16.476 55.2073 16.1584C55.594 15.8277 56.034 15.616 56.5273 15.5233C56.034 15.219 55.6473 14.8353 55.3673 14.3723C55.1007 13.896 54.9673 13.3667 54.9673 12.7846C54.9673 12.0304 55.154 11.3953 55.5273 10.8793C55.914 10.3633 56.4607 9.973 57.1673 9.70838C57.8873 9.43053 58.734 9.2916 59.7073 9.2916C60.094 9.2916 60.454 9.31145 60.7873 9.35114C61.134 9.39084 61.4473 9.45699 61.7273 9.54961C62.2207 9.25853 62.554 8.94099 62.7273 8.59698C62.914 8.23975 63.014 7.95529 63.0273 7.74359H65.6073C65.6073 8.23313 65.514 8.65652 65.3273 9.01376C65.154 9.37099 64.9007 9.66868 64.5673 9.90684C64.234 10.1318 63.834 10.2972 63.3673 10.403C63.714 10.6941 63.9807 11.0447 64.1673 11.4549C64.354 11.865 64.4473 12.3082 64.4473 12.7846C64.4473 13.5255 64.2673 14.1606 63.9073 14.6898C63.5473 15.2058 63.034 15.6027 62.3673 15.8806C61.714 16.1584 60.9273 16.2974 60.0073 16.2974H58.4073C58.0873 16.2974 57.8473 16.3569 57.6873 16.476C57.5273 16.5818 57.4473 16.7406 57.4473 16.9523C57.4473 17.1243 57.514 17.2764 57.6473 17.4088C57.794 17.5278 58.0273 17.5874 58.3473 17.5874H62.7273C63.6073 17.5874 64.3073 17.8586 64.8273 18.4011C65.3607 18.9303 65.6273 19.6117 65.6273 20.4452C65.6273 21.0803 65.4607 21.6426 65.1273 22.1322C64.794 22.6217 64.334 23.0054 63.7473 23.2833C63.1607 23.5611 62.4873 23.7 61.7273 23.7H56.7273ZM57.8873 21.8543H61.5873C61.8273 21.8543 62.0407 21.808 62.2273 21.7154C62.414 21.636 62.5607 21.5169 62.6673 21.3582C62.774 21.2126 62.8273 21.0406 62.8273 20.8422C62.8273 20.4982 62.7207 20.2402 62.5073 20.0682C62.294 19.8962 62.0273 19.8102 61.7073 19.8102H57.8873C57.5673 19.8102 57.3007 19.9028 57.0873 20.088C56.8873 20.2732 56.7873 20.518 56.7873 20.8223C56.7873 21.1266 56.8873 21.3714 57.0873 21.5566C57.3007 21.7551 57.5673 21.8543 57.8873 21.8543ZM59.7073 14.5112C60.3607 14.5112 60.854 14.3656 61.1873 14.0746C61.534 13.7703 61.7073 13.3403 61.7073 12.7846C61.7073 12.2289 61.534 11.8055 61.1873 11.5144C60.854 11.2101 60.3607 11.0579 59.7073 11.0579C59.0673 11.0579 58.574 11.2101 58.2273 11.5144C57.894 11.8055 57.7273 12.2289 57.7273 12.7846C57.7273 13.1418 57.8007 13.4527 57.9473 13.7173C58.094 13.982 58.314 14.1804 58.6073 14.3127C58.9007 14.445 59.2673 14.5112 59.7073 14.5112Z" fill="#F0EBF5"/>
<path d="M48.4102 19.9687V9.52955H50.7102L50.9302 11.1569H51.0702C51.2035 10.8129 51.3768 10.502 51.5902 10.2242C51.8035 9.93309 52.0702 9.70155 52.3902 9.52955C52.7102 9.35755 53.0835 9.27155 53.5102 9.27155C53.7368 9.27155 53.9435 9.29801 54.1302 9.35093C54.3168 9.39062 54.4568 9.43032 54.5502 9.47001V11.9706H53.6902C53.2768 11.9706 52.9102 12.0302 52.5902 12.1493C52.2835 12.2551 52.0235 12.4271 51.8102 12.6653C51.5968 12.9034 51.4368 13.1945 51.3302 13.5385C51.2368 13.8825 51.1902 14.286 51.1902 14.7491V19.9687H48.4102Z" fill="#F0EBF5"/>
<path d="M40.6294 20.2071C39.376 20.2071 38.296 20.0086 37.3894 19.6117C36.496 19.2148 35.8094 18.6194 35.3294 17.8255C34.8494 17.0185 34.6094 16.0195 34.6094 14.8287V6.35437H37.6094V14.7494C37.6094 15.7284 37.8694 16.4826 38.3894 17.0118C38.9094 17.5278 39.656 17.7859 40.6294 17.7859C41.6027 17.7859 42.3494 17.5278 42.8694 17.0118C43.4027 16.4826 43.6694 15.7284 43.6694 14.7494V6.35437H46.6694V14.8287C46.6694 16.0195 46.4294 17.0185 45.9494 17.8255C45.4694 18.6194 44.776 19.2148 43.8694 19.6117C42.976 20.0086 41.896 20.2071 40.6294 20.2071Z" fill="#F0EBF5"/>
<rect width="29.286" height="29.286" rx="14.643" fill="#F0EBF5"/>
<path d="M4.97852 10.213C11.4606 6.12412 17.7213 5.60082 21.8519 7.091C23.8092 7.79716 25.4024 9.00719 26.1627 10.6294C27.7684 10.8782 29.3936 11.2976 31.0076 11.9214L30.0949 14.283C28.9328 13.8339 27.7615 13.5032 26.5959 13.2756C26.4672 14.3572 25.9786 15.4415 25.1464 16.4548C22.46 19.726 18.0747 21.8035 14.2604 22.5913C12.3462 22.9866 10.4696 23.0804 8.93367 22.7755C7.44143 22.4794 5.92329 21.7177 5.42333 20.1083C5.1545 19.2428 5.3242 18.375 5.67949 17.6247C6.03305 16.8781 6.60441 16.1671 7.2964 15.5153C8.68315 14.2091 10.7247 12.9813 13.1405 12.0532C15.8726 11.0035 19.1694 10.305 22.6798 10.3439C22.2316 10.0163 21.6714 9.71757 20.9926 9.47268C17.7569 8.30534 12.3104 8.58161 6.32937 12.3544L4.97852 10.213ZM14.0485 14.4166C11.856 15.259 10.1219 16.3322 9.03241 17.3583C8.48631 17.8727 8.14436 18.3356 7.96779 18.7085C7.4996 19.6972 8.58863 20.1257 9.42662 20.292C10.5235 20.5097 12.0384 20.4648 13.7483 20.1117C17.1824 19.4024 20.9761 17.5434 23.1898 14.8478C26.5093 10.8058 15.7282 13.7713 14.0485 14.4166Z" fill="#401A6D"/>
</svg>
