<svg width="184" height="47" viewBox="0 0 184 47" fill="none" xmlns="http://www.w3.org/2000/svg">
<path d="M167.391 31.9516V8.96045H171.839V22.2026L177.727 15.2481H182.943L177.183 21.7898L183.231 31.9516H178.143L174.271 24.9018L171.839 27.2518V31.9516H167.391Z" fill="#401A6D"/>
<path d="M149.512 31.9519V30.8087C149.512 29.8561 149.682 28.9881 150.024 28.2048C150.365 27.4215 150.834 26.7017 151.432 26.0454C152.029 25.3891 152.69 24.7646 153.416 24.1718C154.141 23.579 154.888 23.0074 155.656 22.457C156.531 21.8007 157.352 21.155 158.12 20.5199C158.909 19.8848 159.549 19.2073 160.04 18.4875C160.531 17.7465 160.776 16.9315 160.776 16.0423C160.776 15.6189 160.669 15.1955 160.456 14.7721C160.243 14.3487 159.901 13.9994 159.432 13.7242C158.984 13.4278 158.376 13.2796 157.608 13.2796C156.819 13.2796 156.168 13.4172 155.656 13.6924C155.144 13.9464 154.749 14.3169 154.472 14.8038C154.216 15.2696 154.088 15.8518 154.088 16.5504V17.6936H149.8C149.778 17.5878 149.757 17.4396 149.736 17.249C149.714 17.0585 149.704 16.8256 149.704 16.5504C149.704 15.005 150.056 13.7347 150.76 12.7397C151.485 11.7447 152.456 11.0037 153.672 10.5168C154.909 10.0299 156.307 9.78644 157.864 9.78644C159.272 9.78644 160.445 9.98756 161.384 10.3898C162.344 10.7709 163.112 11.2895 163.688 11.9458C164.264 12.5809 164.669 13.2796 164.904 14.0417C165.16 14.7827 165.288 15.5025 165.288 16.2011C165.288 17.1961 165.107 18.1064 164.744 18.9321C164.381 19.7577 163.891 20.5305 163.272 21.2503C162.653 21.9701 161.917 22.6687 161.064 23.3461C160.211 24.0024 159.304 24.6587 158.344 25.315C157.853 25.6537 157.384 25.9819 156.936 26.2994C156.509 26.617 156.136 26.924 155.816 27.2203C155.517 27.4956 155.283 27.7708 155.112 28.046H165.448V31.9519H149.512Z" fill="#401A6D"/>
<path d="M145.615 32.3329C144.548 32.3329 143.684 32.1423 143.023 31.7613C142.361 31.3802 141.881 30.8721 141.583 30.237C141.284 29.5807 141.135 28.8609 141.135 28.0776V18.6462H139.055V15.2483H141.295L142.127 10.4849H145.583V15.2483H148.655V18.6462H145.583V27.3472C145.583 27.8553 145.7 28.247 145.935 28.5222C146.17 28.7762 146.554 28.9033 147.087 28.9033H148.655V31.8248C148.399 31.9095 148.1 31.9836 147.759 32.0471C147.418 32.1318 147.055 32.1953 146.671 32.2376C146.287 32.3011 145.935 32.3329 145.615 32.3329Z" fill="#401A6D"/>
<path d="M122.939 31.9519V15.2484H126.62L126.972 17.5348H127.196C127.58 16.9844 128.038 16.508 128.572 16.1058C129.126 15.7035 129.745 15.3966 130.428 15.1849C131.11 14.9732 131.857 14.8673 132.668 14.8673C133.777 14.8673 134.748 15.0684 135.58 15.4707C136.412 15.8729 137.052 16.508 137.5 17.376C137.969 18.244 138.204 19.3766 138.204 20.7739V31.9519H133.756V21.4725C133.756 20.9432 133.692 20.4987 133.564 20.1388C133.436 19.7577 133.244 19.4507 132.988 19.2178C132.753 18.9638 132.454 18.7839 132.092 18.678C131.729 18.5721 131.324 18.5192 130.876 18.5192C130.214 18.5192 129.617 18.678 129.084 18.9956C128.55 19.3131 128.134 19.7471 127.836 20.2975C127.537 20.848 127.388 21.4831 127.388 22.2029V31.9519H122.939Z" fill="#401A6D"/>
<path d="M113.5 32.333C111.644 32.333 110.086 32.026 108.828 31.4121C107.569 30.7769 106.62 29.8137 105.98 28.5223C105.34 27.2309 105.02 25.5902 105.02 23.6001C105.02 21.5889 105.34 19.9482 105.98 18.678C106.62 17.3866 107.558 16.4339 108.796 15.82C110.054 15.1849 111.59 14.8673 113.404 14.8673C115.11 14.8673 116.55 15.1743 117.724 15.7882C118.897 16.381 119.783 17.3125 120.38 18.5827C120.977 19.8318 121.276 21.4513 121.276 23.4414V24.5846H109.532C109.574 25.5584 109.724 26.3841 109.98 27.0615C110.257 27.739 110.673 28.2471 111.228 28.5858C111.804 28.9033 112.561 29.0621 113.5 29.0621C114.012 29.0621 114.47 28.9986 114.876 28.8716C115.302 28.7446 115.665 28.554 115.964 28.3C116.262 28.0459 116.497 27.7284 116.668 27.3473C116.838 26.9662 116.924 26.5323 116.924 26.0453H121.276C121.276 27.1039 121.084 28.0248 120.7 28.8081C120.316 29.5914 119.783 30.2477 119.1 30.7769C118.417 31.285 117.596 31.6767 116.636 31.9519C115.697 32.2059 114.652 32.333 113.5 32.333ZM109.596 21.7901H116.7C116.7 21.1549 116.614 20.6045 116.444 20.1388C116.294 19.673 116.081 19.2919 115.804 18.9956C115.526 18.6992 115.185 18.4875 114.78 18.3604C114.396 18.2122 113.958 18.1382 113.468 18.1382C112.657 18.1382 111.974 18.2758 111.42 18.551C110.886 18.805 110.47 19.2073 110.172 19.7577C109.894 20.287 109.702 20.9644 109.596 21.7901Z" fill="#401A6D"/>
<path d="M90.7654 37.9219C90.0187 37.9219 89.3147 37.7632 88.6534 37.4456C87.992 37.1492 87.4587 36.7046 87.0533 36.1119C86.648 35.5191 86.4453 34.8099 86.4453 33.9842C86.4453 33.0527 86.712 32.3118 87.2453 31.7613C87.8 31.1897 88.4187 30.7663 89.1014 30.4911C88.6107 30.2159 88.2054 29.856 87.8853 29.4114C87.5867 28.9668 87.4373 28.4481 87.4373 27.8554C87.4373 27.0297 87.736 26.3628 88.3334 25.8548C88.952 25.3255 89.6561 24.9868 90.4454 24.8386C89.6561 24.3516 89.0374 23.7377 88.5894 22.9967C88.1627 22.2346 87.9493 21.3878 87.9493 20.4563C87.9493 19.2496 88.248 18.2334 88.8454 17.4077C89.464 16.5821 90.3387 15.9575 91.4694 15.5341C92.6214 15.0896 93.9761 14.8673 95.5335 14.8673C96.1522 14.8673 96.7282 14.899 97.2616 14.9625C97.8162 15.026 98.3176 15.1319 98.7656 15.2801C99.5549 14.8143 100.088 14.3062 100.366 13.7558C100.664 13.1842 100.824 12.729 100.846 12.3903H104.974C104.974 13.1736 104.824 13.8511 104.526 14.4227C104.248 14.9943 103.843 15.4706 103.31 15.8517C102.776 16.2116 102.136 16.4762 101.39 16.6456C101.944 17.1113 102.371 17.6724 102.67 18.3286C102.968 18.9849 103.118 19.6941 103.118 20.4563C103.118 21.6418 102.83 22.658 102.254 23.5048C101.678 24.3305 100.856 24.9656 99.7896 25.4102C98.7442 25.8548 97.4856 26.077 96.0135 26.077H93.4535C92.9415 26.077 92.5574 26.1723 92.3014 26.3628C92.0454 26.5322 91.9174 26.7863 91.9174 27.125C91.9174 27.4002 92.0241 27.6437 92.2374 27.8554C92.4721 28.0459 92.8455 28.1412 93.3575 28.1412H100.366C101.774 28.1412 102.894 28.5752 103.726 29.4432C104.579 30.29 105.006 31.3803 105.006 32.714C105.006 33.7302 104.739 34.6299 104.206 35.4132C103.672 36.1965 102.936 36.8105 101.998 37.2551C101.059 37.6996 99.9816 37.9219 98.7656 37.9219H90.7654ZM92.6214 34.9687H98.5416C98.9256 34.9687 99.2669 34.8946 99.5656 34.7464C99.8643 34.6193 100.099 34.4288 100.27 34.1748C100.44 33.9419 100.526 33.6667 100.526 33.3491C100.526 32.7987 100.355 32.3859 100.014 32.1106C99.6723 31.8354 99.2456 31.6978 98.7336 31.6978H92.6214C92.1094 31.6978 91.6828 31.846 91.3414 32.1424C91.0214 32.4388 90.8614 32.8304 90.8614 33.3174C90.8614 33.8043 91.0214 34.1959 91.3414 34.4923C91.6828 34.8099 92.1094 34.9687 92.6214 34.9687ZM95.5335 23.219C96.5789 23.219 97.3682 22.9862 97.9016 22.5204C98.4562 22.0335 98.7336 21.3454 98.7336 20.4563C98.7336 19.5671 98.4562 18.8897 97.9016 18.4239C97.3682 17.937 96.5789 17.6935 95.5335 17.6935C94.5095 17.6935 93.7201 17.937 93.1655 18.4239C92.6321 18.8897 92.3654 19.5671 92.3654 20.4563C92.3654 21.0279 92.4828 21.5254 92.7175 21.9488C92.9521 22.3722 93.3041 22.6898 93.7735 22.9015C94.2428 23.1132 94.8295 23.219 95.5335 23.219Z" fill="#401A6D"/>
<path d="M77.457 31.9515V15.248H81.1371L81.4891 17.8519H81.7131C81.9265 17.3015 82.2038 16.804 82.5451 16.3594C82.8865 15.8937 83.3132 15.5232 83.8252 15.248C84.3372 14.9728 84.9345 14.8351 85.6172 14.8351C85.9799 14.8351 86.3106 14.8775 86.6092 14.9622C86.9079 15.0257 87.1319 15.0892 87.2812 15.1527V19.1539H85.9052C85.2439 19.1539 84.6572 19.2492 84.1452 19.4397C83.6545 19.6091 83.2385 19.8843 82.8971 20.2654C82.5558 20.6464 82.2998 21.1122 82.1291 21.6626C81.9798 22.2131 81.9051 22.8588 81.9051 23.5997V31.9515H77.457Z" fill="#401A6D"/>
<path d="M65.0072 32.3329C63.0018 32.3329 61.2738 32.0154 59.8231 31.3803C58.3937 30.7451 57.295 29.7925 56.527 28.5222C55.759 27.2308 55.375 25.6325 55.375 23.7271V10.1674H60.1751V23.6001C60.1751 25.1667 60.5911 26.3734 61.4231 27.2203C62.2552 28.0459 63.4498 28.4587 65.0072 28.4587C66.5646 28.4587 67.7593 28.0459 68.5913 27.2203C69.4446 26.3734 69.8713 25.1667 69.8713 23.6001V10.1674H74.6714V23.7271C74.6714 25.6325 74.2874 27.2308 73.5194 28.5222C72.7514 29.7925 71.642 30.7451 70.1913 31.3803C68.762 32.0154 67.0339 32.3329 65.0072 32.3329Z" fill="#401A6D"/>
<rect width="46.8586" height="46.86" rx="23.4293" fill="#401A6D"/>
<path d="M7.9668 22.0373C18.3384 15.495 28.3556 14.6577 34.9648 17.042C38.0966 18.1719 40.6458 20.108 41.8623 22.7036C44.4314 23.1017 47.0318 23.7727 49.6143 24.7708L48.1539 28.5495C46.2945 27.8309 44.4203 27.3018 42.5554 26.9376C42.3494 28.6682 41.5677 30.4031 40.2362 32.0244C35.9377 37.2584 28.9211 40.5825 22.8182 41.843C19.7553 42.4755 16.7527 42.6256 14.2952 42.1378C11.9076 41.664 9.47847 40.4453 8.67852 37.8701C8.24838 36.4854 8.5199 35.0968 9.08839 33.8963C9.6541 32.7018 10.5683 31.564 11.6755 30.5212C13.8943 28.4313 17.1608 26.4667 21.0263 24.9816C25.3977 23.3022 30.6727 22.1845 36.2894 22.2467C35.5723 21.7226 34.6761 21.2446 33.59 20.8528C28.4127 18.985 19.6981 19.427 10.1282 25.4636L7.9668 22.0373ZM22.4792 28.7633C18.971 30.1111 16.1964 31.8282 14.4532 33.4701C13.5794 34.2931 13.0323 35.0338 12.7497 35.6304C12.0006 37.2123 13.7431 37.898 15.0839 38.1641C16.8389 38.5124 19.2628 38.4406 21.9988 37.8755C27.4935 36.7407 33.5635 33.7662 37.1055 29.4532C42.4168 22.9859 25.1666 27.7308 22.4792 28.7633Z" fill="#F0EBF5"/>
</svg>
