<svg width="62" height="62" viewBox="0 0 62 62" fill="none" xmlns="http://www.w3.org/2000/svg">
<circle cx="30.8516" cy="31.3022" r="30" fill="#C4B8D2"/>
<path d="M30.8209 25.3276C28.3652 21.2678 23.0581 21.1439 20.4158 25.0857C19.5291 26.4075 19.0751 28.0291 19.1306 29.6767C19.186 31.3242 19.7474 32.8967 20.7201 34.1286L30.0983 46.0126C30.1761 46.1111 30.2712 46.1905 30.3778 46.2458C30.4844 46.3011 30.6001 46.3312 30.7178 46.3341C30.8355 46.337 30.9525 46.3127 31.0617 46.2628C31.1709 46.2128 31.2698 46.1383 31.3524 46.0438L41.2847 34.665C42.3259 33.472 42.9669 31.9131 43.0981 30.2549C43.2293 28.5967 42.8427 26.9421 42.0042 25.5738C39.5216 21.5239 34.2043 21.4353 31.576 25.4005L31.205 25.961L30.8209 25.3276Z" fill="#3A1863"/>
</svg>
