<svg width="24" height="24" viewBox="0 0 24 24" fill="none" xmlns="http://www.w3.org/2000/svg">
<g clip-path="url(#clip0_1252_12818)">
<path d="M14.5419 19.1979C15.0164 18.7398 15.0297 17.9836 14.5715 17.5091C14.1133 17.0346 13.3572 17.0213 12.8827 17.4795C12.4081 17.9377 12.3949 18.6938 12.853 19.1683C13.3112 19.6429 14.0673 19.6561 14.5419 19.1979Z" fill="#59667C"/>
<path d="M14.8753 18.0639L12.6047 18.7858L10.5703 14.2146L13.3828 13.2002L14.8753 18.0639Z" fill="#59667C"/>
<path d="M18.4292 18.7913L17.8311 20.7938L13.3555 19.4794L14.0567 17.2632L18.4292 18.7913Z" fill="#59667C"/>
<path d="M19.5024 19.7832L18.9774 21.527C18.9534 21.6075 18.9137 21.6825 18.8606 21.7476C18.8074 21.8127 18.742 21.8667 18.6679 21.9065C18.5938 21.9462 18.5127 21.9709 18.429 21.9791C18.3454 21.9874 18.2609 21.979 18.1805 21.9545L18.1505 21.9451C18.07 21.921 17.995 21.8813 17.9299 21.8282C17.8648 21.7751 17.8108 21.7096 17.771 21.6356C17.7313 21.5615 17.7066 21.4803 17.6984 21.3967C17.6901 21.313 17.6985 21.2286 17.723 21.1482L18.248 19.4045C18.2721 19.3239 18.3118 19.2489 18.3649 19.1838C18.418 19.1187 18.4835 19.0647 18.5576 19.025C18.6316 18.9852 18.7128 18.9605 18.7964 18.9523C18.8801 18.9441 18.9645 18.9524 19.0449 18.977L19.0749 18.9863C19.4143 19.0876 19.6055 19.4438 19.5024 19.7832Z" fill="#4568AD"/>
<path d="M18.1016 21.9309L18.9963 18.9614L19.8455 19.2172L18.9507 22.1866L18.1016 21.9309Z" fill="#4568AD"/>
<path d="M18.1211 19.815L18.4305 18.7881L19.1199 18.9958L18.8105 20.0228L18.1211 19.815Z" fill="#4568AD"/>
<path d="M10.293 18.4197C10.4645 17.7828 10.0873 17.1274 9.45036 16.9558C8.81343 16.7842 8.15801 17.1615 7.98644 17.7984C7.81487 18.4353 8.19212 19.0907 8.82905 19.2623C9.46598 19.4339 10.1214 19.0566 10.293 18.4197Z" fill="#818C9B"/>
<path d="M9.95687 18.9654L8.17188 17.3885L11.0462 13.2954L13.3637 15.1873L9.95687 18.9654Z" fill="#818C9B"/>
<path d="M7.59406 22.7378L5.77344 21.7084L8.08531 17.5459L10.0897 18.7234L7.59406 22.7378Z" fill="#818C9B"/>
<path d="M6.38056 23.5405L4.79618 22.6405C4.72317 22.599 4.65904 22.5436 4.60747 22.4773C4.55589 22.411 4.51787 22.3353 4.49558 22.2543C4.4733 22.1733 4.46718 22.0888 4.47758 22.0054C4.48797 21.9221 4.51468 21.8416 4.55618 21.7686L4.57118 21.7405C4.61267 21.6675 4.66812 21.6034 4.73439 21.5518C4.80066 21.5002 4.87644 21.4622 4.95741 21.4399C5.03837 21.4176 5.12293 21.4115 5.20626 21.4219C5.28959 21.4323 5.37005 21.459 5.44306 21.5005L7.02743 22.4005C7.10045 22.442 7.16457 22.4975 7.21615 22.5637C7.26772 22.63 7.30574 22.7058 7.32803 22.7867C7.35032 22.8677 7.35644 22.9523 7.34604 23.0356C7.33564 23.1189 7.30893 23.1994 7.26743 23.2724L7.25243 23.3005C7.16851 23.4478 7.02958 23.5558 6.86612 23.6008C6.70267 23.6458 6.52804 23.6241 6.38056 23.5405Z" fill="#4568AD"/>
<path d="M4.59853 21.6948L7.29441 23.2274L6.85603 23.9984L4.16016 22.4658L4.59853 21.6948Z" fill="#4568AD"/>
<path d="M6.65666 22.1841L7.58891 22.7141L7.23303 23.34L6.30078 22.81L6.65666 22.1841Z" fill="#4568AD"/>
<path d="M12.2053 15.7368C13.0306 15.7368 13.6997 15.0677 13.6997 14.2424C13.6997 13.4171 13.0306 12.748 12.2053 12.748C11.38 12.748 10.7109 13.4171 10.7109 14.2424C10.7109 15.0677 11.38 15.7368 12.2053 15.7368Z" fill="#818C9B"/>
<path d="M8.79416 12.6928L7.70703 11.886L9.33941 9.68604L10.4265 10.4927L8.79416 12.6928Z" fill="#FBC11B"/>
<path d="M8.37824 12.9594C8.74997 12.8855 8.99139 12.5242 8.91748 12.1525C8.84357 11.7807 8.4823 11.5393 8.11057 11.6132C7.73885 11.6872 7.49742 12.0484 7.57133 12.4201C7.64525 12.7919 8.00651 13.0333 8.37824 12.9594Z" fill="#FBC11B"/>
<path d="M8.51953 10.2318L10.2483 11.4674L11.527 9.67864C11.6865 9.45497 11.7508 9.17721 11.7058 8.90623C11.6608 8.63525 11.5102 8.39316 11.287 8.23301L11.2439 8.20301C11.0202 8.04356 10.7425 7.97928 10.4715 8.02427C10.2005 8.06926 9.95843 8.21984 9.79828 8.44301L8.51953 10.2318Z" fill="#04A287"/>
<path d="M6.04425 13.2006L5.90625 11.8539L8.21362 11.6177L8.35162 12.9643L6.04425 13.2006Z" fill="#FBC11B"/>
<path d="M4.42227 12.647L4.42602 12.6901C4.43705 12.8024 4.4701 12.9114 4.52329 13.0109C4.57647 13.1105 4.64876 13.1985 4.736 13.2701C4.82324 13.3417 4.92373 13.3953 5.03172 13.428C5.13972 13.4608 5.2531 13.4719 5.36539 13.4607L5.84914 13.412C5.96144 13.4009 6.07047 13.3679 6.16999 13.3147C6.2695 13.2615 6.35757 13.1892 6.42913 13.102C6.5007 13.0148 6.55438 12.9143 6.58709 12.8063C6.6198 12.6983 6.6309 12.5849 6.61977 12.4726L6.61602 12.4295C6.60499 12.3172 6.57193 12.2081 6.51875 12.1086C6.46556 12.0091 6.39328 11.921 6.30604 11.8495C6.2188 11.7779 6.11831 11.7242 6.01031 11.6915C5.90231 11.6588 5.78893 11.6477 5.67664 11.6588L5.19289 11.7076C5.08053 11.7185 4.97143 11.7514 4.87184 11.8046C4.77225 11.8577 4.68413 11.93 4.61254 12.0173C4.54094 12.1046 4.48728 12.2051 4.45463 12.3132C4.42198 12.4212 4.41098 12.5347 4.42227 12.647ZM10.8366 5.7976L11.3223 7.7026L9.91414 8.24635L8.44414 4.63135L10.8366 5.7976Z" fill="#FBC11B"/>
<path d="M10.7288 3.86616L11.1094 7.12116L8.98692 7.38554C8.00067 7.50929 7.11192 6.78179 7.03692 5.78991L6.94692 4.58804C6.86255 3.47804 7.75692 2.53679 8.8688 2.56304L9.3113 2.57429C10.0407 2.59304 10.6444 3.14241 10.7288 3.86616Z" fill="#FBC11B"/>
<path d="M11.0648 6.06552L10.0523 6.00552L9.91917 5.31552C9.89733 5.20131 9.84477 5.09522 9.76713 5.00866C9.68949 4.9221 9.58971 4.85835 9.47854 4.82427L9.33229 5.61927C9.09792 5.60427 8.88604 5.46927 8.77542 5.26114L8.55604 4.84677C8.50911 4.7584 8.44175 4.68251 8.35956 4.62544C8.27737 4.56836 8.18274 4.53175 8.08354 4.51864L6.94729 4.37052C6.94729 4.37052 6.77667 2.83302 8.27292 2.46927C8.53167 2.40739 8.78854 2.36052 9.03604 2.32489C10.1873 2.16364 11.2129 3.06364 11.2092 4.22614C11.2042 4.8419 11.156 5.45654 11.0648 6.06552Z" fill="#6D4C41"/>
<path d="M7.82154 5.24791C7.83654 5.39229 7.75029 5.51979 7.63029 5.53104C7.51029 5.54229 7.40154 5.43541 7.38841 5.29103C7.37341 5.14666 7.45966 5.01916 7.57966 5.00791C7.69966 4.99478 7.80654 5.10354 7.82154 5.24791Z" fill="#C07B47"/>
<path d="M13.1361 14.0831L10.8036 14.6362C10.3574 14.7412 9.91113 14.4656 9.80425 14.0212L9.2305 9.71437C9.15363 9.01125 9.0955 7.81875 10.0274 7.59937L10.8336 7.40812C11.6361 7.21875 12.1949 8.08687 12.4293 8.91375L13.753 13.0837C13.8037 13.2981 13.7672 13.5237 13.6515 13.7112C13.5358 13.8986 13.3504 14.0324 13.1361 14.0831Z" fill="#00BEA4"/>
<path d="M14.9483 10.4858L14.2727 11.6592L11.8984 10.2923L12.5738 9.11914L14.9483 10.4858Z" fill="#FBC11B"/>
<path d="M14.8206 11.7293C15.1813 11.6129 15.3794 11.2262 15.263 10.8655C15.1466 10.5048 14.7599 10.3067 14.3992 10.4231C14.0385 10.5395 13.8404 10.9262 13.9568 11.2869C14.0732 11.6476 14.4599 11.8457 14.8206 11.7293Z" fill="#FBC11B"/>
<path d="M12.5332 11.0437L13.5588 9.18368L11.6351 8.12055C11.3943 7.98821 11.1109 7.95672 10.8469 8.03298C10.583 8.10925 10.36 8.28706 10.227 8.52743L10.2026 8.57243C10.0702 8.8132 10.0387 9.09663 10.115 9.36058C10.1913 9.62453 10.3691 9.84748 10.6095 9.98055L12.5332 11.0437Z" fill="#04A287"/>
<path d="M16.297 12.871L15.0934 13.4911L14.0312 11.4291L15.2348 10.8091L16.297 12.871Z" fill="#FBC11B"/>
<path d="M16.3714 14.5802L16.4089 14.5614C16.5094 14.51 16.5988 14.4393 16.672 14.3534C16.7452 14.2674 16.8007 14.1678 16.8353 14.0604C16.87 13.9529 16.8831 13.8397 16.874 13.7271C16.8648 13.6146 16.8336 13.505 16.782 13.4045L16.5607 12.9733C16.5094 12.8728 16.4386 12.7833 16.3527 12.7102C16.2667 12.637 16.1671 12.5815 16.0597 12.5468C15.9522 12.5122 15.839 12.499 15.7265 12.5082C15.6139 12.5174 15.5043 12.5486 15.4039 12.6002L15.3664 12.6189C15.2658 12.6703 15.1764 12.741 15.1032 12.827C15.0301 12.913 14.9746 13.0125 14.9399 13.12C14.9052 13.2274 14.8921 13.3407 14.9013 13.4532C14.9104 13.5657 14.9417 13.6754 14.9932 13.7758L15.2145 14.207C15.3187 14.4096 15.499 14.5626 15.7159 14.6326C15.9327 14.7025 16.1684 14.6837 16.3714 14.5802Z" fill="#FBC11B"/>
</g>
<defs>
<clipPath id="clip0_1252_12818">
<rect width="24" height="24" fill="white" transform="translate(0.00390625)"/>
</clipPath>
</defs>
</svg>
