<svg width="184" height="47" viewBox="0 0 184 47" fill="none" xmlns="http://www.w3.org/2000/svg">
<path d="M167.386 31.9499V8.95996H171.834V22.2014L177.722 15.2473H182.938L177.178 21.7886L183.226 31.9499H178.138L174.266 24.9005L171.834 27.2503V31.9499H167.386Z" fill="#401A6D"/>
<path d="M149.508 31.9503V30.8071C149.508 29.8545 149.678 28.9865 150.02 28.2033C150.361 27.42 150.83 26.7002 151.428 26.044C152.025 25.3877 152.686 24.7632 153.412 24.1705C154.137 23.5778 154.884 23.0062 155.652 22.4558C156.526 21.7995 157.348 21.1539 158.116 20.5188C158.905 19.8837 159.545 19.2063 160.036 18.4865C160.526 17.7456 160.772 16.9306 160.772 16.0414C160.772 15.6181 160.665 15.1947 160.452 14.7713C160.238 14.3479 159.897 13.9986 159.428 13.7234C158.98 13.427 158.372 13.2788 157.604 13.2788C156.814 13.2788 156.164 13.4164 155.652 13.6916C155.14 13.9457 154.745 14.3161 154.468 14.803C154.212 15.2688 154.084 15.8509 154.084 16.5495V17.6927H149.796C149.774 17.5868 149.753 17.4386 149.732 17.2481C149.71 17.0576 149.7 16.8247 149.7 16.5495C149.7 15.0041 150.052 13.734 150.756 12.739C151.481 11.7441 152.452 11.0031 153.668 10.5162C154.905 10.0293 156.302 9.78589 157.86 9.78589C159.268 9.78589 160.441 9.987 161.38 10.3892C162.34 10.7703 163.108 11.2889 163.684 11.9452C164.26 12.5803 164.665 13.2788 164.9 14.0409C165.156 14.7819 165.284 15.5016 165.284 16.2002C165.284 17.1952 165.102 18.1055 164.74 18.9311C164.377 19.7567 163.886 20.5294 163.268 21.2491C162.649 21.9689 161.913 22.6675 161.06 23.3449C160.206 24.0011 159.3 24.6574 158.34 25.3137C157.849 25.6524 157.38 25.9805 156.932 26.298C156.505 26.6156 156.132 26.9225 155.812 27.2189C155.513 27.4941 155.278 27.7693 155.108 28.0445H165.444V31.9503H149.508Z" fill="#401A6D"/>
<path d="M145.61 32.3312C144.543 32.3312 143.679 32.1407 143.018 31.7596C142.356 31.3786 141.876 30.8705 141.578 30.2354C141.279 29.5792 141.13 28.8594 141.13 28.0762V18.6452H139.05V15.2475H141.29L142.122 10.4844H145.578V15.2475H148.65V18.6452H145.578V27.3458C145.578 27.8539 145.695 28.2455 145.93 28.5207C146.164 28.7747 146.548 28.9018 147.082 28.9018H148.65V31.8231C148.394 31.9078 148.095 31.9819 147.754 32.0454C147.412 32.1301 147.05 32.1936 146.666 32.2359C146.282 32.2995 145.93 32.3312 145.61 32.3312Z" fill="#401A6D"/>
<path d="M122.936 31.9503V15.2476H126.616L126.968 17.5339H127.192C127.576 16.9835 128.034 16.5072 128.568 16.105C129.122 15.7028 129.741 15.3958 130.424 15.1841C131.106 14.9724 131.853 14.8666 132.664 14.8666C133.773 14.8666 134.744 15.0677 135.576 15.4699C136.408 15.8721 137.048 16.5072 137.496 17.3752C137.965 18.2431 138.2 19.3757 138.2 20.7728V31.9503H133.752V21.4714C133.752 20.9422 133.688 20.4976 133.56 20.1378C133.432 19.7567 133.24 19.4498 132.984 19.2169C132.749 18.9629 132.45 18.7829 132.088 18.6771C131.725 18.5712 131.32 18.5183 130.872 18.5183C130.21 18.5183 129.613 18.6771 129.08 18.9946C128.546 19.3122 128.13 19.7461 127.832 20.2965C127.533 20.8469 127.384 21.482 127.384 22.2018V31.9503H122.936Z" fill="#401A6D"/>
<path d="M113.497 32.3313C111.641 32.3313 110.083 32.0244 108.825 31.4105C107.566 30.7754 106.617 29.8122 105.977 28.5208C105.337 27.2295 105.017 25.5889 105.017 23.599C105.017 21.5879 105.337 19.9472 105.977 18.6771C106.617 17.3857 107.555 16.4331 108.793 15.8192C110.051 15.1841 111.587 14.8666 113.401 14.8666C115.107 14.8666 116.547 15.1735 117.721 15.7874C118.894 16.3802 119.779 17.3116 120.377 18.5818C120.974 19.8308 121.273 21.4503 121.273 23.4402V24.5833H109.529C109.571 25.5571 109.721 26.3827 109.977 27.0602C110.254 27.7376 110.67 28.2456 111.225 28.5844C111.801 28.9019 112.558 29.0607 113.497 29.0607C114.009 29.0607 114.467 28.9972 114.873 28.8701C115.299 28.7431 115.662 28.5526 115.961 28.2986C116.259 28.0445 116.494 27.727 116.665 27.3459C116.835 26.9649 116.921 26.5309 116.921 26.044H121.273C121.273 27.1025 121.081 28.0234 120.697 28.8066C120.313 29.5899 119.779 30.2462 119.097 30.7754C118.414 31.2835 117.593 31.6751 116.633 31.9503C115.694 32.2043 114.649 32.3313 113.497 32.3313ZM109.593 21.789H116.697C116.697 21.1539 116.611 20.6035 116.441 20.1378C116.291 19.672 116.078 19.291 115.801 18.9946C115.523 18.6982 115.182 18.4865 114.777 18.3595C114.393 18.2113 113.955 18.1373 113.465 18.1373C112.654 18.1373 111.971 18.2749 111.417 18.5501C110.883 18.8041 110.467 19.2063 110.169 19.7567C109.891 20.2859 109.699 20.9634 109.593 21.789Z" fill="#401A6D"/>
<path d="M90.7634 37.92C90.0167 37.92 89.3127 37.7612 88.6514 37.4436C87.99 37.1473 87.4567 36.7027 87.0514 36.11C86.646 35.5172 86.4434 34.8081 86.4434 33.9824C86.4434 33.051 86.71 32.3101 87.2434 31.7597C87.798 31.1881 88.4167 30.7647 89.0994 30.4895C88.6087 30.2143 88.2034 29.8544 87.8834 29.4099C87.5847 28.9653 87.4354 28.4466 87.4354 27.8539C87.4354 27.0283 87.734 26.3615 88.3314 25.8534C88.95 25.3242 89.654 24.9854 90.4434 24.8373C89.654 24.3504 89.0354 23.7365 88.5874 22.9955C88.1607 22.2334 87.9474 21.3866 87.9474 20.4552C87.9474 19.2485 88.246 18.2324 88.8434 17.4068C89.462 16.5812 90.3367 15.9567 91.4674 15.5333C92.6194 15.0887 93.974 14.8665 95.5314 14.8665C96.15 14.8665 96.726 14.8982 97.2594 14.9617C97.814 15.0252 98.3154 15.1311 98.7634 15.2793C99.5527 14.8135 100.086 14.3055 100.363 13.7551C100.662 13.1835 100.822 12.7284 100.843 12.3896H104.971C104.971 13.1729 104.822 13.8503 104.523 14.4219C104.246 14.9935 103.841 15.4698 103.307 15.8508C102.774 16.2107 102.134 16.4753 101.387 16.6447C101.942 17.1104 102.369 17.6714 102.667 18.3277C102.966 18.9839 103.115 19.6931 103.115 20.4552C103.115 21.6407 102.827 22.6568 102.251 23.5036C101.675 24.3292 100.854 24.9643 99.7874 25.4088C98.742 25.8534 97.4834 26.0757 96.0114 26.0757H93.4514C92.9394 26.0757 92.5554 26.1709 92.2994 26.3615C92.0434 26.5308 91.9154 26.7848 91.9154 27.1236C91.9154 27.3988 92.022 27.6422 92.2354 27.8539C92.47 28.0444 92.8434 28.1397 93.3554 28.1397H100.363C101.771 28.1397 102.891 28.5737 103.723 29.4416C104.577 30.2884 105.003 31.3786 105.003 32.7123C105.003 33.7284 104.737 34.6281 104.203 35.4114C103.67 36.1947 102.934 36.8086 101.995 37.2531C101.057 37.6977 99.9794 37.92 98.7634 37.92H90.7634ZM92.6194 34.9668H98.5394C98.9234 34.9668 99.2647 34.8927 99.5634 34.7445C99.862 34.6175 100.097 34.427 100.267 34.173C100.438 33.9401 100.523 33.6649 100.523 33.3474C100.523 32.797 100.353 32.3842 100.011 32.109C99.67 31.8338 99.2434 31.6961 98.7314 31.6961H92.6194C92.1074 31.6961 91.6807 31.8443 91.3394 32.1407C91.0194 32.4371 90.8594 32.8287 90.8594 33.3156C90.8594 33.8025 91.0194 34.1941 91.3394 34.4905C91.6807 34.8081 92.1074 34.9668 92.6194 34.9668ZM95.5314 23.2178C96.5767 23.2178 97.366 22.9849 97.8994 22.5192C98.454 22.0323 98.7314 21.3443 98.7314 20.4552C98.7314 19.5661 98.454 18.8887 97.8994 18.4229C97.366 17.936 96.5767 17.6926 95.5314 17.6926C94.5074 17.6926 93.718 17.936 93.1634 18.4229C92.63 18.8887 92.3634 19.5661 92.3634 20.4552C92.3634 21.0268 92.4807 21.5243 92.7154 21.9476C92.95 22.371 93.302 22.6886 93.7714 22.9003C94.2407 23.112 94.8274 23.2178 95.5314 23.2178Z" fill="#401A6D"/>
<path d="M77.4551 31.9498V15.2472H81.1351L81.4871 17.851H81.7111C81.9244 17.3006 82.2017 16.8031 82.5431 16.3585C82.8844 15.8928 83.3111 15.5224 83.8231 15.2472C84.3351 14.972 84.9324 14.8344 85.6151 14.8344C85.9777 14.8344 86.3084 14.8767 86.6071 14.9614C86.9057 15.0249 87.1297 15.0884 87.2791 15.1519V19.1529H85.9031C85.2417 19.1529 84.6551 19.2482 84.1431 19.4387C83.6524 19.6081 83.2364 19.8833 82.8951 20.2643C82.5537 20.6454 82.2977 21.1111 82.1271 21.6615C81.9777 22.2119 81.9031 22.8576 81.9031 23.5985V31.9498H77.4551Z" fill="#401A6D"/>
<path d="M65.005 32.3312C62.9997 32.3312 61.2717 32.0137 59.821 31.3786C58.3917 30.7435 57.293 29.7909 56.525 28.5207C55.757 27.2294 55.373 25.6311 55.373 23.7259V10.1669H60.173V23.5989C60.173 25.1654 60.589 26.3721 61.421 27.2188C62.253 28.0444 63.4477 28.4572 65.005 28.4572C66.5624 28.4572 67.757 28.0444 68.589 27.2188C69.4424 26.3721 69.869 25.1654 69.869 23.5989V10.1669H74.669V23.7259C74.669 25.6311 74.285 27.2294 73.517 28.5207C72.749 29.7909 71.6397 30.7435 70.189 31.3786C68.7597 32.0137 67.0317 32.3312 65.005 32.3312Z" fill="#401A6D"/>
<rect width="46.8576" height="46.8576" rx="23.4288" fill="#401A6D"/>
<path d="M7.9668 16.3407C18.3382 9.79857 28.3552 8.96128 34.9642 11.3456C38.096 12.4754 40.645 14.4115 41.8616 17.0071C44.4306 17.4052 47.031 18.0761 49.6134 19.0742L48.153 22.8528C46.2936 22.1342 44.4195 21.6051 42.5547 21.2409C42.3487 22.9715 41.5669 24.7063 40.2355 26.3276C35.9371 31.5615 28.9206 34.8856 22.8179 36.146C19.7551 36.7785 16.7525 36.9286 14.295 36.4408C11.9075 35.967 9.47843 34.7483 8.67851 32.1732C8.24837 30.7885 8.51989 29.3999 9.08836 28.1995C9.65406 27.005 10.5682 25.8673 11.6754 24.8244C13.8942 22.7346 17.1606 20.7701 21.026 19.285C25.3973 17.6056 30.6722 16.4879 36.2888 16.5502C35.5717 16.026 34.6755 15.5481 33.5894 15.1563C28.4123 13.2885 19.6979 13.7305 10.1282 19.767L7.9668 16.3407ZM22.4788 23.0666C18.9707 24.4144 16.1962 26.1315 14.453 27.7733C13.5793 28.5963 13.0321 29.337 12.7496 29.9335C12.0005 31.5154 13.743 32.2011 15.0838 32.4672C16.8387 32.8154 19.2626 32.7437 21.9984 32.1786C27.4931 31.0438 33.563 28.0693 37.1048 23.7565C42.416 17.2893 25.1663 22.0341 22.4788 23.0666Z" fill="#F0EBF5"/>
</svg>
