<svg width="22" height="24" viewBox="0 0 22 24" fill="none" xmlns="http://www.w3.org/2000/svg">
<mask id="path-1-inside-1_674_9406" fill="white">
<path d="M21.1838 19.44L17.6063 23.0063L16.5938 21.9938L18.4275 20.16H11.52V18.72H18.4275L16.5938 16.8863L17.6063 15.8738L21.1838 19.44ZM13.6575 21.6L15.0975 23.04H0V0H12.5438L18.72 6.17625V14.4338L17.28 12.9938V7.2H11.52V1.44H1.44V21.6H13.6575ZM12.96 5.76H16.2563L12.96 2.46375V5.76Z"/>
</mask>
<path d="M21.1838 19.44L17.6063 23.0063L16.5938 21.9938L18.4275 20.16H11.52V18.72H18.4275L16.5938 16.8863L17.6063 15.8738L21.1838 19.44ZM13.6575 21.6L15.0975 23.04H0V0H12.5438L18.72 6.17625V14.4338L17.28 12.9938V7.2H11.52V1.44H1.44V21.6H13.6575ZM12.96 5.76H16.2563L12.96 2.46375V5.76Z" fill="#989494"/>
<path d="M21.1838 19.44L22.5957 20.8564L24.0166 19.44L22.5957 18.0236L21.1838 19.44ZM17.6063 23.0063L16.192 24.4205L17.604 25.8325L19.0182 24.4227L17.6063 23.0063ZM16.5938 21.9938L15.1795 20.5795L13.7653 21.9938L15.1795 23.408L16.5938 21.9938ZM18.4275 20.16L19.8417 21.5742L23.2559 18.16H18.4275V20.16ZM11.52 20.16H9.52V22.16H11.52V20.16ZM11.52 18.72V16.72H9.52V18.72H11.52ZM18.4275 18.72V20.72H23.2559L19.8417 17.3058L18.4275 18.72ZM16.5938 16.8863L15.1795 15.472L13.7653 16.8863L15.1795 18.3005L16.5938 16.8863ZM17.6063 15.8738L19.0182 14.4573L17.604 13.0475L16.192 14.4595L17.6063 15.8738ZM13.6575 21.6L15.0717 20.1858L14.4859 19.6H13.6575V21.6ZM15.0975 23.04V25.04H19.9259L16.5117 21.6258L15.0975 23.04ZM0 23.04H-2V25.04H0V23.04ZM0 0V-2H-2V0H0ZM12.5438 0L13.958 -1.41421L13.3722 -2H12.5438V0ZM18.72 6.17625H20.72V5.34782L20.1342 4.76204L18.72 6.17625ZM18.72 14.4338L17.3058 15.848L20.72 19.2622V14.4338H18.72ZM17.28 12.9938H15.28V13.8222L15.8658 14.408L17.28 12.9938ZM17.28 7.2H19.28V5.2H17.28V7.2ZM11.52 7.2H9.52V9.2H11.52V7.2ZM11.52 1.44H13.52V-0.56H11.52V1.44ZM1.44 1.44V-0.56H-0.56V1.44H1.44ZM1.44 21.6H-0.56V23.6H1.44V21.6ZM12.96 5.76H10.96V7.76H12.96V5.76ZM16.2563 5.76V7.76H21.0847L17.6705 4.34579L16.2563 5.76ZM12.96 2.46375L14.3742 1.04954L10.96 -2.36468V2.46375H12.96ZM21.1838 19.44L19.7718 18.0236L16.1943 21.5898L17.6063 23.0063L19.0182 24.4227L22.5957 20.8564L21.1838 19.44ZM17.6063 23.0063L19.0205 21.592L18.008 20.5795L16.5938 21.9938L15.1795 23.408L16.192 24.4205L17.6063 23.0063ZM16.5938 21.9938L18.008 23.408L19.8417 21.5742L18.4275 20.16L17.0133 18.7458L15.1795 20.5795L16.5938 21.9938ZM18.4275 20.16V18.16H11.52V20.16V22.16H18.4275V20.16ZM11.52 20.16H13.52V18.72H11.52H9.52V20.16H11.52ZM11.52 18.72V20.72H18.4275V18.72V16.72H11.52V18.72ZM18.4275 18.72L19.8417 17.3058L18.008 15.472L16.5938 16.8863L15.1795 18.3005L17.0133 20.1342L18.4275 18.72ZM16.5938 16.8863L18.008 18.3005L19.0205 17.288L17.6063 15.8738L16.192 14.4595L15.1795 15.472L16.5938 16.8863ZM17.6063 15.8738L16.1943 17.2902L19.7718 20.8564L21.1838 19.44L22.5957 18.0236L19.0182 14.4573L17.6063 15.8738ZM13.6575 21.6L12.2433 23.0142L13.6833 24.4542L15.0975 23.04L16.5117 21.6258L15.0717 20.1858L13.6575 21.6ZM15.0975 23.04V21.04H0V23.04V25.04H15.0975V23.04ZM0 23.04H2V0H0H-2V23.04H0ZM0 0V2H12.5438V0V-2H0V0ZM12.5438 0L11.1295 1.41421L17.3058 7.59046L18.72 6.17625L20.1342 4.76204L13.958 -1.41421L12.5438 0ZM18.72 6.17625H16.72V14.4338H18.72H20.72V6.17625H18.72ZM18.72 14.4338L20.1342 13.0195L18.6942 11.5795L17.28 12.9938L15.8658 14.408L17.3058 15.848L18.72 14.4338ZM17.28 12.9938H19.28V7.2H17.28H15.28V12.9938H17.28ZM17.28 7.2V5.2H11.52V7.2V9.2H17.28V7.2ZM11.52 7.2H13.52V1.44H11.52H9.52V7.2H11.52ZM11.52 1.44V-0.56H1.44V1.44V3.44H11.52V1.44ZM1.44 1.44H-0.56V21.6H1.44H3.44V1.44H1.44ZM1.44 21.6V23.6H13.6575V21.6V19.6H1.44V21.6ZM12.96 5.76V7.76H16.2563V5.76V3.76H12.96V5.76ZM16.2563 5.76L17.6705 4.34579L14.3742 1.04954L12.96 2.46375L11.5458 3.87796L14.842 7.17421L16.2563 5.76ZM12.96 2.46375H10.96V5.76H12.96H14.96V2.46375H12.96Z" fill="#A7A4A4" mask="url(#path-1-inside-1_674_9406)"/>
</svg>
