<svg width="275" height="61" viewBox="0 0 275 61" fill="none" xmlns="http://www.w3.org/2000/svg">
<path d="M258.428 48.6289C257.423 48.6289 256.581 48.5474 255.903 48.3845C255.251 48.2488 254.83 48.1538 254.64 48.0995V44.2716H257.124C257.803 44.2716 258.414 44.1088 258.957 43.783C259.5 43.4844 259.975 43.0771 260.382 42.5613C260.789 42.0727 261.088 41.5433 261.278 40.9732L252.889 19.5536H258.875L262.54 29.4489C262.703 29.9105 262.88 30.4941 263.07 31.2C263.287 31.8787 263.504 32.5981 263.721 33.3582C263.939 34.0912 264.115 34.7428 264.251 35.3129H264.454C264.563 34.9328 264.685 34.4849 264.821 33.9691C264.957 33.4532 265.092 32.9239 265.228 32.3809C265.391 31.838 265.54 31.3221 265.676 30.8335C265.839 30.3177 265.975 29.8697 266.083 29.4897L269.137 19.5536H274.838L267.549 39.9551C267.142 41.1497 266.667 42.2627 266.124 43.2943C265.608 44.3531 264.997 45.2761 264.291 46.0634C263.586 46.8778 262.744 47.5022 261.767 47.9366C260.817 48.3981 259.703 48.6289 258.428 48.6289Z" fill="#F0EBF5"/>
<path d="M239.407 41.4618C238.701 41.4618 237.941 41.3803 237.127 41.2174C236.34 41.0546 235.593 40.7695 234.887 40.3623C234.181 39.9279 233.598 39.3171 233.136 38.5298C232.702 37.7154 232.485 36.6838 232.485 35.435C232.485 33.9418 232.81 32.7066 233.462 31.7293C234.113 30.752 235.036 29.9918 236.231 29.4489C237.453 28.8788 238.905 28.4851 240.588 28.2679C242.271 28.0508 244.131 27.9422 246.167 27.9422V26.354C246.167 25.7296 246.059 25.1867 245.841 24.7251C245.651 24.2636 245.298 23.8971 244.783 23.6257C244.294 23.3542 243.602 23.2184 242.706 23.2184C241.81 23.2184 241.077 23.327 240.507 23.5442C239.964 23.7614 239.57 24.0464 239.326 24.3994C239.109 24.7251 239 25.0916 239 25.4989V25.9875H233.503C233.475 25.8518 233.462 25.7296 233.462 25.621C233.462 25.4853 233.462 25.3224 233.462 25.1324C233.462 23.8836 233.842 22.8112 234.602 21.9153C235.362 20.9923 236.435 20.2865 237.819 19.7978C239.204 19.3092 240.819 19.0648 242.665 19.0648C244.647 19.0648 246.303 19.3227 247.633 19.8385C248.99 20.3543 250.022 21.1145 250.728 22.119C251.461 23.1234 251.827 24.3858 251.827 25.9061V35.6386C251.827 36.1272 251.963 36.4937 252.235 36.738C252.533 36.9552 252.859 37.0638 253.212 37.0638H254.556V40.7695C254.284 40.9052 253.863 41.041 253.293 41.1767C252.723 41.3396 252.031 41.421 251.217 41.421C250.429 41.421 249.723 41.2989 249.099 41.0546C248.502 40.8374 248 40.5252 247.592 40.118C247.185 39.6836 246.9 39.1678 246.737 38.5705H246.452C245.991 39.1406 245.421 39.6429 244.742 40.0772C244.09 40.5116 243.317 40.8509 242.421 41.0953C241.552 41.3396 240.548 41.4618 239.407 41.4618ZM241.321 37.186C242.081 37.186 242.76 37.0774 243.357 36.8602C243.955 36.6159 244.457 36.3037 244.864 35.9236C245.271 35.5164 245.583 35.0277 245.801 34.4576C246.045 33.8875 246.167 33.2767 246.167 32.6252V31.4442C244.647 31.4442 243.289 31.5528 242.095 31.77C240.9 31.96 239.95 32.2994 239.244 32.788C238.566 33.2767 238.226 33.9554 238.226 34.8241C238.226 35.3128 238.349 35.7336 238.593 36.0865C238.837 36.4394 239.19 36.7109 239.652 36.9009C240.113 37.091 240.67 37.186 241.321 37.186Z" fill="#F0EBF5"/>
<path d="M213.553 40.9729V11.4904H219.213V28.4713L226.706 19.5533H233.344L226.014 27.9419L233.71 40.9729H227.236L222.308 31.9327L219.213 34.9461V40.9729H213.553Z" fill="#F0EBF5"/>
<path d="M190.802 40.9731V39.5071C190.802 38.2855 191.019 37.1724 191.453 36.168C191.888 35.1635 192.485 34.2405 193.245 33.3989C194.005 32.5573 194.847 31.7564 195.77 30.9963C196.693 30.2362 197.643 29.5032 198.62 28.7973C199.734 27.9557 200.779 27.1277 201.756 26.3133C202.761 25.4989 203.575 24.6301 204.199 23.7071C204.824 22.7569 205.136 21.7118 205.136 20.5715C205.136 20.0286 205 19.4856 204.729 18.9427C204.457 18.3997 204.023 17.9518 203.426 17.5989C202.856 17.2188 202.082 17.0288 201.104 17.0288C200.1 17.0288 199.272 17.2052 198.62 17.5581C197.969 17.8839 197.467 18.359 197.114 18.9834C196.788 19.5807 196.625 20.3272 196.625 21.2231V22.6891H191.168C191.141 22.5533 191.114 22.3633 191.087 22.119C191.06 21.8746 191.046 21.576 191.046 21.2231C191.046 19.2413 191.494 17.6124 192.39 16.3365C193.313 15.0605 194.548 14.1104 196.096 13.486C197.67 12.8616 199.448 12.5494 201.43 12.5494C203.222 12.5494 204.715 12.8073 205.91 13.3231C207.131 13.8117 208.109 14.4769 208.842 15.3184C209.575 16.1329 210.09 17.0288 210.389 18.0061C210.715 18.9563 210.878 19.8793 210.878 20.7752C210.878 22.0511 210.647 23.2185 210.185 24.2772C209.724 25.336 209.1 26.3269 208.312 27.2499C207.525 28.1729 206.588 29.0688 205.502 29.9375C204.417 30.7791 203.263 31.6207 202.041 32.4623C201.417 32.8966 200.819 33.3174 200.249 33.7247C199.706 34.1319 199.231 34.5255 198.824 34.9056C198.444 35.2585 198.145 35.6114 197.928 35.9644H211.081V40.9731H190.802Z" fill="#F0EBF5"/>
<path d="M185.842 41.4619C184.485 41.4619 183.385 41.2175 182.544 40.7289C181.702 40.2402 181.091 39.5887 180.711 38.7742C180.331 37.9326 180.141 37.0096 180.141 36.0052V23.9108H177.494V19.5536H180.345L181.403 13.4453H185.801V19.5536H189.711V23.9108H185.801V35.0686C185.801 35.7201 185.951 36.2223 186.249 36.5753C186.548 36.901 187.037 37.0639 187.715 37.0639H189.711V40.8103C189.385 40.9189 189.005 41.0139 188.57 41.0954C188.136 41.204 187.675 41.2854 187.186 41.3397C186.697 41.4211 186.249 41.4619 185.842 41.4619Z" fill="#F0EBF5"/>
<path d="M156.988 40.9731V19.5535H161.671L162.119 22.4855H162.404C162.893 21.7796 163.477 21.1688 164.155 20.653C164.861 20.1372 165.648 19.7435 166.517 19.472C167.386 19.2006 168.336 19.0648 169.368 19.0648C170.779 19.0648 172.014 19.3227 173.073 19.8385C174.132 20.3543 174.946 21.1688 175.517 22.2818C176.114 23.3949 176.412 24.8473 176.412 26.6391V40.9731H170.752V27.5349C170.752 26.8562 170.671 26.2861 170.508 25.8246C170.345 25.336 170.101 24.9423 169.775 24.6437C169.476 24.3179 169.096 24.0872 168.635 23.9514C168.173 23.8157 167.657 23.7478 167.087 23.7478C166.246 23.7478 165.485 23.9514 164.807 24.3586C164.128 24.7659 163.599 25.3224 163.219 26.0282C162.839 26.7341 162.648 27.5485 162.648 28.4715V40.9731H156.988Z" fill="#F0EBF5"/>
<path d="M144.976 41.4618C142.614 41.4618 140.632 41.0681 139.03 40.2808C137.429 39.4664 136.221 38.2312 135.406 36.5752C134.592 34.9191 134.185 32.8152 134.185 30.2633C134.185 27.6843 134.592 25.5803 135.406 23.9514C136.221 22.2954 137.415 21.0738 138.99 20.2865C140.591 19.472 142.546 19.0648 144.854 19.0648C147.026 19.0648 148.858 19.4585 150.351 20.2458C151.844 21.0059 152.971 22.2004 153.731 23.8293C154.491 25.431 154.871 27.5078 154.871 30.0597V31.5257H139.926C139.981 32.7745 140.171 33.8332 140.496 34.702C140.849 35.5707 141.379 36.2222 142.085 36.6566C142.818 37.0638 143.781 37.2674 144.976 37.2674C145.627 37.2674 146.211 37.186 146.727 37.0231C147.27 36.8602 147.731 36.6159 148.111 36.2901C148.492 35.9643 148.79 35.5571 149.007 35.0685C149.224 34.5798 149.333 34.0233 149.333 33.3989H154.871C154.871 34.7563 154.627 35.9372 154.138 36.9417C153.65 37.9461 152.971 38.7877 152.102 39.4664C151.233 40.118 150.188 40.6202 148.967 40.9731C147.772 41.2989 146.442 41.4618 144.976 41.4618ZM140.008 27.9422H149.048C149.048 27.1277 148.939 26.4219 148.722 25.8246C148.532 25.2274 148.261 24.7387 147.908 24.3586C147.555 23.9786 147.121 23.7071 146.605 23.5442C146.116 23.3542 145.56 23.2592 144.935 23.2592C143.904 23.2592 143.035 23.4356 142.329 23.7885C141.65 24.1143 141.121 24.6301 140.741 25.336C140.388 26.0147 140.144 26.8834 140.008 27.9422Z" fill="#F0EBF5"/>
<path d="M116.046 48.6289C115.096 48.6289 114.2 48.4253 113.359 48.018C112.517 47.638 111.838 47.0679 111.323 46.3077C110.807 45.5476 110.549 44.6381 110.549 43.5794C110.549 42.3849 110.888 41.4347 111.567 40.7289C112.273 39.9959 113.06 39.4529 113.929 39.1C113.304 38.7471 112.789 38.2856 112.381 37.7154C112.001 37.1453 111.811 36.4802 111.811 35.7201C111.811 34.6613 112.191 33.8062 112.951 33.1546C113.739 32.4759 114.635 32.0416 115.639 31.8515C114.635 31.2271 113.847 30.4398 113.277 29.4897C112.734 28.5123 112.463 27.4264 112.463 26.2319C112.463 24.6845 112.843 23.3814 113.603 22.3226C114.39 21.2639 115.503 20.463 116.942 19.9201C118.408 19.35 120.132 19.0649 122.114 19.0649C122.901 19.0649 123.634 19.1056 124.313 19.1871C125.019 19.2685 125.657 19.4043 126.227 19.5943C127.231 18.997 127.91 18.3455 128.263 17.6397C128.643 16.9067 128.847 16.323 128.874 15.8886H134.127C134.127 16.8931 133.937 17.7618 133.557 18.4948C133.204 19.2278 132.688 19.8386 132.009 20.3273C131.331 20.7888 130.516 21.1281 129.566 21.3453C130.272 21.9426 130.815 22.662 131.195 23.5036C131.575 24.3452 131.765 25.2546 131.765 26.2319C131.765 27.7522 131.398 29.0553 130.665 30.1412C129.932 31.2 128.887 32.0144 127.53 32.5845C126.2 33.1546 124.598 33.4397 122.725 33.4397H119.467C118.815 33.4397 118.327 33.5618 118.001 33.8062C117.675 34.0233 117.512 34.3491 117.512 34.7835C117.512 35.1364 117.648 35.4486 117.92 35.7201C118.218 35.9644 118.693 36.0866 119.345 36.0866H128.263C130.055 36.0866 131.48 36.6431 132.539 37.7562C133.625 38.8421 134.167 40.2402 134.167 41.9505C134.167 43.2536 133.828 44.4074 133.149 45.4118C132.471 46.4163 131.534 47.2036 130.34 47.7737C129.145 48.3438 127.774 48.6289 126.227 48.6289H116.046ZM118.408 44.8417H125.942C126.43 44.8417 126.865 44.7467 127.245 44.5567C127.625 44.3938 127.924 44.1495 128.141 43.8237C128.358 43.5251 128.466 43.1722 128.466 42.7649C128.466 42.0591 128.249 41.5297 127.815 41.1768C127.381 40.8239 126.838 40.6474 126.186 40.6474H118.408C117.757 40.6474 117.214 40.8374 116.779 41.2175C116.372 41.5976 116.169 42.0998 116.169 42.7242C116.169 43.3486 116.372 43.8509 116.779 44.2309C117.214 44.6381 117.757 44.8417 118.408 44.8417ZM122.114 29.7747C123.444 29.7747 124.449 29.4761 125.127 28.8788C125.833 28.2544 126.186 27.3721 126.186 26.2319C126.186 25.0917 125.833 24.223 125.127 23.6257C124.449 23.0013 123.444 22.6891 122.114 22.6891C120.811 22.6891 119.806 23.0013 119.1 23.6257C118.422 24.223 118.082 25.0917 118.082 26.2319C118.082 26.9649 118.232 27.6029 118.53 28.1458C118.829 28.6888 119.277 29.096 119.874 29.3675C120.471 29.639 121.218 29.7747 122.114 29.7747Z" fill="#F0EBF5"/>
<path d="M99.1109 40.9729V19.5533H103.794L104.242 22.8924H104.527C104.798 22.1866 105.151 21.5486 105.586 20.9785C106.02 20.3813 106.563 19.9062 107.214 19.5533C107.866 19.2003 108.626 19.0239 109.495 19.0239C109.956 19.0239 110.377 19.0782 110.757 19.1868C111.137 19.2682 111.422 19.3496 111.612 19.4311V24.562H109.861C109.02 24.562 108.273 24.6842 107.622 24.9285C106.997 25.1457 106.468 25.4986 106.034 25.9873C105.599 26.4759 105.273 27.0732 105.056 27.779C104.866 28.4849 104.771 29.3129 104.771 30.2631V40.9729H99.1109Z" fill="#F0EBF5"/>
<path d="M83.2683 41.4619C80.7164 41.4619 78.5175 41.0546 76.6714 40.2402C74.8525 39.4258 73.4544 38.2041 72.4771 36.5753C71.4998 34.9192 71.0111 32.8696 71.0111 30.4263V13.0381H77.1193V30.2634C77.1193 32.2723 77.6487 33.8198 78.7075 34.9057C79.7663 35.9644 81.2865 36.4938 83.2683 36.4938C85.2501 36.4938 86.7704 35.9644 87.8292 34.9057C88.9151 33.8198 89.458 32.2723 89.458 30.2634V13.0381H95.5663V30.4263C95.5663 32.8696 95.0776 34.9192 94.1003 36.5753C93.123 38.2041 91.7113 39.4258 89.8652 40.2402C88.0463 41.0546 85.8474 41.4619 83.2683 41.4619Z" fill="#F0EBF5"/>
<path d="M0 30.0453C0 13.4517 13.4517 0 30.0453 0C46.6388 0 60.0905 13.4517 60.0905 30.0453C60.0905 46.6388 46.6388 60.0905 30.0453 60.0905C13.4517 60.0905 0 46.6388 0 30.0453Z" fill="#F0EBF5"/>
<path d="M10.2166 20.9555C23.5169 12.5658 36.3628 11.4921 44.8382 14.5497C48.8544 15.9986 52.1234 18.4814 53.6835 21.8101C56.978 22.3206 60.3127 23.181 63.6244 24.4609L61.7517 29.3067C59.3672 28.3851 56.9638 27.7066 54.5723 27.2396C54.3082 29.4589 53.3056 31.6836 51.5982 33.7628C46.0859 40.4748 37.0879 44.7376 29.2617 46.3539C25.3339 47.1651 21.4834 47.3575 18.332 46.7321C15.2701 46.1244 12.1551 44.5616 11.1293 41.2592C10.5777 39.4835 10.9259 37.7028 11.6549 36.1634C12.3803 34.6315 13.5527 33.1724 14.9725 31.8351C17.8179 29.155 22.0068 26.6358 26.9638 24.7313C32.5696 22.5776 39.3342 21.1443 46.5369 21.2241C45.6173 20.5519 44.468 19.939 43.0752 19.4366C36.436 17.0414 25.2606 17.6082 12.9883 25.3494L10.2166 20.9555ZM28.8269 29.5808C24.3281 31.3092 20.77 33.5112 18.5346 35.6168C17.414 36.6722 16.7124 37.622 16.3501 38.387C15.3895 40.4157 17.624 41.2949 19.3434 41.6362C21.594 42.0828 24.7024 41.9908 28.2109 41.2662C35.2572 39.8109 43.0413 35.9964 47.5834 30.4656C54.3945 22.172 32.2733 28.2567 28.8269 29.5808Z" fill="#401A6D"/>
</svg>
