<svg width="24" height="24" viewBox="0 0 24 24" fill="none" xmlns="http://www.w3.org/2000/svg">
<path d="M23.7393 4.70795L20.4174 8.44537C19.7463 17.1977 13.1858 24 5.33423 24C3.72104 24 2.39115 23.7125 1.38124 23.145C0.566864 22.6863 0.23356 22.195 0.150233 22.055C0.0759335 21.9297 0.0277748 21.7871 0.00935591 21.6378C-0.00906297 21.4886 0.00273433 21.3366 0.0438658 21.1932C0.0849973 21.0498 0.154399 20.9187 0.246887 20.8097C0.339375 20.7007 0.452556 20.6167 0.577974 20.5638C0.606861 20.5513 3.27108 19.4001 4.96315 17.2089C4.02485 16.3408 3.2057 15.3215 2.53225 14.184C1.15459 11.8828 -0.387499 7.88538 0.0880163 1.91177C0.103089 1.72196 0.166056 1.54094 0.269504 1.39004C0.372951 1.23914 0.51257 1.12464 0.67192 1.06002C0.831269 0.995399 1.00371 0.983353 1.16894 1.0253C1.33417 1.06725 1.48531 1.16144 1.60455 1.29678C1.64344 1.34053 5.30201 5.43419 9.77496 6.76166V6.00042C9.77326 5.20219 9.91354 4.41163 10.1875 3.67532C10.4615 2.939 10.8637 2.27181 11.3704 1.71303C11.8625 1.1602 12.448 0.723851 13.0923 0.429736C13.7367 0.135621 14.427 -0.010306 15.1223 0.000565711C16.055 0.0109166 16.9696 0.292625 17.7769 0.818303C18.5843 1.34398 19.257 2.09574 19.7297 3.00049H23.1105C23.2864 3.00034 23.4584 3.0589 23.6047 3.16877C23.7509 3.27864 23.865 3.43487 23.9323 3.61769C23.9996 3.80051 24.0172 4.00169 23.9829 4.19577C23.9485 4.38985 23.8638 4.5681 23.7393 4.70795Z" fill="#DEDEDE"/>
</svg>
